<svg xmlns="http://www.w3.org/2000/svg" xml:space="preserve" viewBox="0 0 19.03 13.81"><path d="M106.17 90.06a3.2 3.2 0 0 1-2.79-2.46 3.35 3.35 0 0 1 .4-2.49l-.22-.01c-.67 0-.99.12-1.78.7l-.22.16h.24l.25.02v.17c0 .15 0 .18-.04.2h-3.36v-.52h1c.92-.01 1-.02 1.14-.06.21-.06.42-.16.67-.31a4.2 4.2 0 0 1 1.24-.64c.28-.08.5-.1.93-.1l.4.02.07-.1.24-.3.17-.18h-1.24l-.08-.08a1.78 1.78 0 0 1-.21-.4c-.13-.28-.16-.32-.26-.41-.15-.14-.28-.18-.53-.17-.46.03-.72.3-.97 1.03-.18.56-.29.7-.6.81-.1.04-.19.04-1.13.05h-1.03l-.04-.08a4.16 4.16 0 0 0-4.45-2.92c-.2.02-.54.1-.63.14-.05.02-.08-.07-.17-.39-.22-.85-.32-1.81-.35-3.64l-.01-.89-.06-.11a.46.46 0 0 0-.17-.2c-.17-.13-.21-.22-.16-.32.05-.09.28-.12 1.46-.2 2.37-.16 4.9-.16 7.26 0 1.65.12 1.86.14 1.92.23.08.12 0 .25-.2.3-.17.04-.24.1-.32.23-.12.2-.13.2-.8.21-.53.01-.59.02-.67.05-.17.08-.25.2-.27.44-.01.14.03 1.16.06 1.48 0 .1.03.22.05.25.01.03.09.12.16.2.2.2.26.33.31.73l.03.18h.96c.94.01.96.01 1.04.06.26.14.35.46.21.8l-.05.12.06.04c.08.05.09.07.05.22-.03.13-.03.23.02.52.04.18.14.5.2.57.07.13.04.13.86.13h.75l.11-.06c.2-.1.58-.48.71-.73.09-.16.12-.34.14-.7.03-.56.08-.75.23-.86.06-.05.08-.06.48-.06h.4l.06.04c.1.1.05.22-.14.3a.67.67 0 0 0-.17.1c-.05.06-.07.22-.1.73 0 .24-.03.5-.05.56-.03.16-.11.25-.57.72l-.37.37.38.01c.4.02.62.05.94.15a3.3 3.3 0 0 1-.39 6.3c-.25.05-.75.08-1 .05zm.19-1.1c0-.78-.02-1.28-.05-1.28-.02 0-.18.25-.37.56a108.72 108.72 0 0 1-.61 1.03c.02.03.35.14.56.18.2.04.29.05.41.06h.06zm.79.5c.17-.03.56-.16.59-.2a37.97 37.97 0 0 0-.93-1.6c-.02-.02-.04-.02-.09 0l-.06.02.02.62.01.92v.3l.15-.01.31-.05zm-1.86-.83a139.34 139.34 0 0 1 .67-1.11l-.04-.05c-.03-.04-.05-.03-.44.19a345.29 345.29 0 0 1-1.22.7c-.04.06.62.73.73.74.02 0 .15-.21.3-.47zm2.88.37c.21-.17.58-.57.58-.62a92.8 92.8 0 0 1-1.5-.89c-.08-.05-.15-.04-.13.02 0 .02.2.35.44.74a29.36 29.36 0 0 1 .5.83l.1-.08zm.9-1.2c.06-.21.14-.57.14-.69v-.07h-1.79l-.02.05c-.02.02-.02.06-.02.07a601.74 601.74 0 0 1 1 .6c.64.36.57.36.68.04zm-4.32-.12.81-.44c.15-.08.17-.1.14-.17-.01-.03-.11-.03-.95-.03h-.94l.02.12a3.3 3.3 0 0 0 .25.88l.67-.36zm2-.45a.46.46 0 1 0-.54-.72c-.16.18-.16.4 0 .6.1.15.35.2.53.12zm-1.06-.59c0-.05-.01-.06-.12-.11a50.5 50.5 0 0 1-1.5-.83c-.07 0-.25.7-.25.93v.07h1.86zm3.53-.04a3.43 3.43 0 0 0-.2-.83l-.52.26-.79.41c-.25.13-.28.16-.29.2v.06h1.8zm-3.32-.36.04-.05-.41-.69a226.41 226.41 0 0 1-.57-.92c-.03 0-.38.35-.5.49a1.4 1.4 0 0 0-.22.33l1.6.89.06-.05zm1.9-.22a63.24 63.24 0 0 1 1.06-.57l-.1-.18a3.05 3.05 0 0 0-.55-.58l-.12-.09-.23.38-.62.97-.1.18.07.08.08.08.5-.27zm-1.5-.03c.03 0 .04-.14.04-.94 0-.9 0-.95-.04-.95-.1 0-.45.06-.58.1-.2.07-.45.17-.45.2l.31.53.47.8c.12.19.18.28.2.28a.2.2 0 0 1 .06-.02zm.65-.21a139.05 139.05 0 0 1 .83-1.33c.02-.04 0-.05-.16-.12a2.56 2.56 0 0 0-.92-.23c-.02 0-.03.19-.03.93 0 .88 0 .94.04.95.09.03.11 0 .24-.2zm-3.77-4.23c.2-.15.2-.44.01-.54-.06-.03-.15-.04-.9-.04h-.83l.01.12c.03.23.08.41.13.46l.05.05h.74c.7-.01.74-.01.8-.05zm-6.66-.43c.02 0 .03-.4.03-1.87v-1.88H93.78v1.87c0 1.75 0 1.88.03 1.88h2.71zm-2.51-1.87v-1.6h2.24v3.2h-2.24Zm2 0v-1.32h-1.75v2.62H96zm3.74 0v-1.88H97V81.14h2.74zm-2.53 1.57v-3.17H99.53v3.2h-1.15c-.9 0-1.15 0-1.16-.03zm2.06-1.57v-1.32h-1.8v2.62h1.8zm-5.2 10.77a3.84 3.84 0 0 1-3.36-3.65 3.9 3.9 0 0 1 1.86-3.53 3.71 3.71 0 0 1 3.54-.2 3.96 3.96 0 0 1 2.02 4.76c-.1.3-.35.8-.52 1.04a3.74 3.74 0 0 1-3.53 1.58zm.28-1.75c0-1.5.02-1.43-.3-.88-.5.8-1.03 1.71-1.04 1.73 0 .03.3.17.54.24.19.06.55.13.7.13h.1zm.74 1.2a4.49 4.49 0 0 0 .94-.3c.02-.02-.04-.13-.25-.5a211.66 211.66 0 0 1-.98-1.63c-.02-.02-.05-.02-.07-.02l-.05.02v2.45h.11l.3-.03zm1.49-.66.33-.3c.16-.18.38-.47.38-.5 0-.02-.04-.06-.1-.08a690.02 690.02 0 0 1-2.03-1.16l-.05.03c-.03.04-.01.07.2.41a167.85 167.85 0 0 1 1.06 1.76l.21-.16zm-3.84.07a96.5 96.5 0 0 1 1.2-2.03c-.04-.07-.08-.07-.16-.02A118.1 118.1 0 0 1 91.76 88c0 .04.26.37.44.55.18.17.46.4.5.4l.05-.07zm4.83-1.38c.12-.32.2-.73.22-1.03v-.13H95.42l-.02.06-.03.07.3.18 1.65.95c.19.11.18.11.27-.1zm-5.94.16a74.42 74.42 0 0 1 2.04-1.14v-.1l-.01-.07h-2.44l.01.16c.03.33.14.76.27 1.05.06.12.09.14.13.1zm3.12-1.1c.22-.14.3-.38.2-.6a.43.43 0 0 0-.42-.29c-.34 0-.56.3-.47.62.03.1.19.27.29.3.1.04.32.02.4-.03zm-1.1-.62a.34.34 0 0 0 .03-.08 102.79 102.79 0 0 0-2.1-1.17 3.28 3.28 0 0 0-.35 1.16l-.01.17h2.41zm2.99.05h1.15l-.01-.15c-.03-.3-.14-.7-.28-1.03l-.04-.1-.1.05-1.84 1.01c-.13.07-.14.08-.13.13 0 .1.02.12.05.1h1.2zm-2.7-.48.06-.05-.14-.22a210.65 210.65 0 0 1-1.13-1.85l-.16.1c-.2.16-.54.5-.7.71-.11.16-.12.18-.09.2a186.55 186.55 0 0 1 2.08 1.16l.08-.05zm1.98-.35 1.01-.55c.39-.21.37-.2.32-.27-.1-.17-.28-.4-.42-.54a1.9 1.9 0 0 0-.47-.4c0 .02-.07.11-.13.22l-.63 1.02-.5.82.04.05.05.05.73-.4zm-1.55-1.06-.01-1.22h-.22a2.75 2.75 0 0 0-1.1.33l.36.61.58.97c.33.54.32.54.36.52.03-.01.03-.16.03-1.21zm.44 1.21s.21-.38.48-.82c.6-1 .75-1.24.75-1.26a2.65 2.65 0 0 0-1.2-.36h-.14v1.22c0 .66.01 1.22.02 1.22.02.02.09.02.09 0z" style="fill:#000" transform="translate(-90.72 -76.26)"/></svg>