<svg class="logo" xmlns="http://www.w3.org/2000/svg" xmlns:xlink="http://www.w3.org/1999/xlink" xml:space="preserve" viewBox="0 0 132.682 132.489"><defs><linearGradient id="a"><stop offset="0" stop-opacity="1"/><stop offset="1" stop-opacity="0"/></linearGradient><linearGradient xlink:href="#a" id="b" x1="39.832" x2="172.514" y1="148.818" y2="148.818" gradientUnits="userSpaceOnUse"/></defs><g style="fill:currentColor;fill-opacity:1;stroke:currentColor;stroke-opacity:1"><path d="M105.936 212.85c-.387-1.26-.706-2.063-.85-2.14-.44-.237-.668-.563-.668-.956 0-.744.238-.829 2.332-.829 2.083 0 2.228.05 2.228.778 0 .447-.215.763-.69 1.018-.14.075-.298.339-.352.586-.152.702-1.187 3.56-1.289 3.56-.05 0-.37-.908-.711-2.017zM102 208.552c-1.62-.111-5.264-.632-7.185-1.027-6.84-1.408-14.269-4.362-19.11-7.599-.327-.218-.64-.397-.696-.397-.095 0-.736 1.028-1.556 2.494-.316.568-.386.622-.6.466-.222-.163-.175-.284.592-1.534 1.135-1.848 1.118-1.753.413-2.21-5.881-3.807-12.329-10.3-16.728-16.844l-1.4-2.082-1.794 1.085c-1.731 1.047-2.02 1.161-2.127.84-.046-.14 3.301-2.25 3.57-2.25.206 0 .15-.139-.445-1.08-2.552-4.041-5.318-10.953-6.618-16.538-.723-3.105-1.378-7.43-1.379-9.095 0-.795.004-.803.38-.76.352.041.382.094.415.735.076 1.468.62 5.338 1.008 7.185 1.824 8.656 5.499 16.85 10.585 23.6 1.93 2.561 1.957 2.595 3.93 4.794 6.623 7.387 14.364 12.65 23.487 15.965 6.455 2.346 12.693 3.427 19.818 3.435 3.605.002 5.876-.178 9.258-.744 8.58-1.436 16.803-4.763 23.633-9.564 5.153-3.622 10.053-8.412 13.902-13.592 1.19-1.6 3.219-4.64 3.775-5.654.209-.38.428-.753.488-.83.238-.302 2.236-4.388 2.955-6.043 5.303-12.196 6.191-26.279 2.44-38.671-1.145-3.782-1.84-5.583-3.326-8.622-4.263-8.713-9.618-15.355-17.337-21.506-5.612-4.47-13.04-8.251-20.185-10.273-4.935-1.396-8.883-1.979-14.221-2.099-9.933-.223-19.282 2.012-28.525 6.819-2.397 1.247-2.432 1.267-4.701 2.739-6.33 4.104-11.526 9.07-16.063 15.35-6.403 8.863-10.065 18.822-10.996 29.904-.095 1.134-.11 1.175-.444 1.175h-.345l.037-1.313c.14-4.877 1.826-12.143 4.137-17.825.837-2.058 2.619-5.685 3.499-7.123.31-.508.537-.994.502-1.08-.035-.086-.816-.581-1.735-1.1-1.51-.852-1.658-.97-1.527-1.213.079-.148.187-.244.24-.214.054.031.824.5 1.712 1.04.887.542 1.64.985 1.674.985.033 0 .497-.67 1.032-1.49 3.033-4.647 7.362-9.613 11.293-12.956.532-.453.999-.859 1.037-.903.152-.176 3.46-2.62 4.56-3.37.645-.44 1.195-.818 1.22-.84.073-.062-.235-.605-1.03-1.81-.796-1.207-.852-1.359-.547-1.476.17-.065.867.918 1.983 2.797.093.157.319.072 1.144-.429 2.381-1.443 5.42-2.956 8.68-4.32 2.495-1.044 8.49-2.805 11.072-3.251 2.683-.465 3.46-.576 5.305-.762 1.132-.114 2.48-.207 2.997-.207.517 0 .978-.062 1.025-.138.047-.076-.04-.138-.194-.138-.322 0-.566-.38-.566-.883 0-.237.169-.483.531-.774.368-.296.577-.605.683-1.009.37-1.409 1.048-3.552 1.124-3.552.045 0 .222.482.393 1.07.869 2.997.953 3.223 1.287 3.452.457.312.538.453.54.943.005.673-.183.75-1.856.771-1.263.018-.99.049 1.582.192 4.877.273 7.9.693 11.538 1.606 4.794 1.203 8.415 2.545 12.643 4.685 1.95.987 2.76 1.437 4.741 2.632.771.464.864.48.981.174.209-.543 1.686-2.803 1.835-2.808.405-.012.278.372-.56 1.69-.494.778-.918 1.488-.943 1.578-.025.09.641.65 1.478 1.244 6.36 4.51 11.98 10.335 16.177 16.762.52.798.964 1.477.985 1.508.057.085.512-.169 2.086-1.165.783-.496 1.483-.865 1.554-.821.35.216-.01.552-1.563 1.464-.93.547-1.71 1.007-1.731 1.022-.023.015.434.89 1.013 1.946 3.88 7.081 6.1 14.176 6.996 22.369.263 2.403.218 9.144-.076 11.469-.976 7.71-2.854 14.033-6.094 20.519-.513 1.026-1.236 2.371-1.608 2.99-.372.618-.674 1.178-.672 1.243.002.066.421.33.932.589 1.923.971 3.33 2.087 2.633 2.087-.185 0-3.407-1.923-3.515-2.097-.163-.265-.383-.028-1.458 1.579-4.528 6.762-10.043 12.472-16.04 16.606-.742.51-1.348.98-1.348 1.043 0 .063.435.775.967 1.582s.967 1.522.967 1.587c0 .066-.093.156-.208.2-.216.083-.239.052-1.524-2.02-.366-.588-.686-1.07-.711-1.07-.026 0-.839.478-1.807 1.061-3.572 2.154-8.662 4.41-12.676 5.62-6.322 1.905-11.032 2.596-17.394 2.552-1.985-.015-3.92-.046-4.3-.072zm-.069-3.782c-7.604-.823-14.068-2.643-19.966-5.62-1.995-1.007-5.212-2.883-6.509-3.795-.463-.326-1.147-.806-1.52-1.065-3.133-2.187-8.034-6.848-10.983-10.444-6.922-8.443-11.083-18.138-12.514-29.155-.311-2.4-.357-9.261-.076-11.538 1-8.116 3.479-15.356 7.642-22.316 3.258-5.448 8.265-11.13 13.527-15.354 9.796-7.863 22.701-12.48 34.899-12.487 9.845-.005 19.264 2.535 27.901 7.524 7.698 4.447 14.501 10.86 19.504 18.383 6.901 10.379 10.064 23.188 8.685 35.166-.49 4.25-1.152 7.2-2.652 11.814-2.117 6.512-5.69 12.846-10.524 18.654-1.743 2.094-6.287 6.522-8.537 8.319-4.99 3.987-10.16 6.839-16.204 8.939-3.972 1.38-7.063 2.116-11.47 2.73-2.294.32-9.132.47-11.203.245zm4.557-.854c-.007-.451-2.467-15.163-2.56-15.315-.03-.046-.599-.123-1.267-.17-3.268-.234-7.425-1.287-11.162-2.83-1.654-.683-4.544-2.14-4.955-2.498-.24-.21-.282-.194-.667.26-.225.265-1.02 1.291-1.764 2.28-.745.987-1.758 2.324-2.251 2.97-.493.646-1.65 2.2-2.57 3.455a179.614 179.614 0 0 1-1.952 2.625c-.152.19-.278.411-.279.492-.003.236 3.396 2.198 5.832 3.367 6.658 3.195 13.654 4.948 21.733 5.445 1.648.1 1.865.092 1.862-.08zm5.046-.183c8.303-.856 15.861-3.354 23.11-7.638.854-.505 1.553-.951 1.554-.991 0-.072-5.169-6.973-7.657-10.22-.727-.949-1.34-1.777-1.36-1.84-.02-.065-1.002.382-2.178.991-2.187 1.134-4.509 2.131-6.352 2.729-2.248.729-5.704 1.478-7.737 1.678l-1.034.102-.3 1.727c-.164.95-.492 2.909-.728 4.353a814.62 814.62 0 0 1-.978 5.803c-.302 1.748-.55 3.281-.552 3.407-.002.2.142.22 1.138.163.627-.036 2.01-.155 3.074-.264zm-34.42-9.351c.22-.4.6-1.068.844-1.486l1.207-2.072c1.055-1.813 4.941-8.996 4.941-9.133 0-.06-.73-.669-1.623-1.352a40.642 40.642 0 0 1-8.152-8.403c-.627-.875-1.14-1.646-1.14-1.715 0-.208-.23-.144-1.206.337-.968.477-5.817 3.025-6.67 3.506-.267.15-1.262.695-2.212 1.212-.95.516-1.882 1.046-2.072 1.178a9.86 9.86 0 0 1-.933.537c-.323.163-.587.363-.587.444 0 .288 2.52 3.844 4.111 5.8 1.723 2.12 5.558 6.046 7.498 7.675.645.542 1.87 1.506 2.723 2.142l2.142 1.598c.325.243.622.445.66.45.038.004.249-.32.47-.718zm60.3-.07 1.577-1.14c3.175-2.286 7.67-6.697 10.77-10.57 1.348-1.685 3.71-5.048 3.71-5.282-.001-.199-12.767-7.086-13.127-7.081-.114.002-.465.395-.78.875-2.018 3.073-5.964 7.153-9.307 9.622-.646.478-1.154.937-1.13 1.022.061.206 1.438 2.698 3.941 7.131 1.137 2.014 2.354 4.174 2.703 4.8.35.626.702 1.139.783 1.14.081 0 .469-.231.86-.516zm-27.389-6.673c8.98-.86 17.693-4.94 24.033-11.255 4.778-4.76 8.158-10.359 10.137-16.793 1.148-3.734 1.673-7.295 1.675-11.353.002-5.848-1.233-11.075-3.991-16.874-2.94-6.18-8.368-12.218-14.377-15.988-4.908-3.08-9.442-4.734-15.62-5.7-2.39-.374-6.782-.394-9.398-.043-4.235.568-9.074 2.057-12.869 3.96-9.207 4.615-16.68 13.18-19.938 22.852-.576 1.709-1.31 4.684-1.69 6.846-.364 2.074-.366 8.344-.004 10.634 1.217 7.68 4.298 14.56 8.946 19.972 1.33 1.548 4.166 4.324 5.45 5.333 5.618 4.414 12.335 7.304 18.93 8.146.684.088 1.555.208 1.935.267 1.04.162 5.07.16 6.781-.005zm-7.058-.972c-3.267-.335-7.403-1.356-10.318-2.548-4.935-2.017-9.119-4.785-12.794-8.462-1.863-1.864-2.763-2.92-4.203-4.938-3.923-5.494-6.66-13.314-6.977-19.935l-.087-1.834.954.078c3.28.268 11.668.906 13.528 1.029 3.6.237 8.31.567 10.087.705.912.071 2.513.17 3.559.22 1.105.052 1.95.152 2.02.24.065.084.193.381.283.662.266.824 1.49 2.54 2.407 3.37.468.425 1.255.995 1.749 1.268.494.272.924.516.956.541.066.053.146 1.064.63 8.06.548 7.891.92 12.437 1.445 17.617.154 1.52.308 3.06.341 3.42l.061.657-1.267-.02c-.698-.01-1.765-.07-2.373-.132zm2.645-1.405c-.074-.414-.274-2.588-.485-5.285l-.087-1.106-.892-.098c-.49-.054-.906-.084-.923-.068-.017.018-.138.792-.27 1.722-.17 1.202-.293 1.691-.424 1.691-.249 0-.253.053.298-3.947.266-1.932.484-3.534.484-3.562 0-.027.31-.02.69.018l.692.066v-.432c0-.33-.061-.432-.26-.432-.49 0-.544-.276-.342-1.724.106-.759.162-1.458.125-1.555-.111-.289-.48-.198-.551.136-.068.322-.354 2.546-.354 2.75 0 .065-.126.117-.28.117-.215 0-.264-.071-.217-.311a94.92 94.92 0 0 0 .308-1.879l.246-1.568.455.074c.405.066.455.039.455-.247 0-.276-.09-.335-.635-.417-.348-.052-.659-.07-.69-.04-.03.031-.232.938-.448 2.015-.216 1.077-.433 2-.483 2.05-.163.162-2.652-.532-3.114-.869-.027-.02.118-.475.323-1.011.402-1.05.48-1.097 1.266-.769.552.23.741.178.741-.208 0-.195-.19-.32-.753-.498-.624-.197-.76-.297-.794-.585-.035-.286-.32-.498-1.631-1.212l-1.589-.865-.437.502c-.376.432-.468.477-.656.32-.121-.1-.22-.239-.22-.31 0-.211 1.946-3.016 2.093-3.016.075 0 .334.151.576.336.888.677 3.536 1.87 4.895 2.205.742.183 1.395.305 1.452.27.16-.098.123-.526-.062-.71a.694.694 0 0 0-.43-.166c-.216 0-.247-.066-.17-.37.154-.615.35-2.545.35-3.468.001-.853-.008-.868-.413-.95-.228-.045-.415-.105-.415-.131 0-.027.156-.462.346-.967.205-.546.345-1.205.344-1.627l-.001-.709-.897-.476c-.493-.262-.897-.492-.897-.51 0-.02.132-.258.293-.532.381-.645.25-.765-.238-.217l-.382.429-.524-.511c-.505-.494-.514-.517-.25-.702.15-.105.272-.28.272-.39 0-.3-.383-.24-.484.077-.09.285-.276.361-.399.162-.039-.062.051-.217.2-.344.27-.232.368-.647.152-.647-.064 0-.228.122-.364.273-.136.15-.31.233-.388.186-.078-.048-.104-.026-.058.048.046.075-.287.503-.741.953l-.826.817-.33-.414c-.436-.546-.636-.328-.217.238l.325.44-.887.817a317.33 317.33 0 0 1-1.94 1.767l-1.052.95-.506-.792c-.494-.775-.591-1.27-.27-1.377.089-.029.273.137.41.37.273.461.304.476.597.291.2-.127.187-.18-.235-.99-.025-.047.467-.42 1.093-.83.625-.409 1.81-1.195 2.632-1.746.822-.55 1.556-1.001 1.632-1.001.18 0 .176-.374-.005-.486-.179-.11-.872-1.489-1.095-2.174-.186-.574-.38-.673-.447-.228-.035.228-.266.36-1.08.62-1.353.43-1.383.427-1.383-.15 0-.352-.06-.484-.221-.484-.176 0-.211.115-.17.552l.053.551-.901.281-1.327.416c-.757.24-.854.186-1.015-.563-.082-.384-.15-.882-.15-1.106 0-.343-.054-.408-.345-.408-.399 0-.41.083-.193 1.337.156.893.086 1.444-.152 1.206-.07-.07-.237-.702-.37-1.404-.235-1.248-.25-1.277-.626-1.277-.453 0-.44-.1-.179 1.382.114.646.207 1.278.207 1.406 0 .172-.353.34-1.386.661-.762.237-1.45.392-1.527.344-.332-.205.042-.419 1.197-.686l1.233-.284-.04-.548c-.067-.946-.06-.94-1.19-.839-.977.089-1.019.08-1.1-.223a3.643 3.643 0 0 1-.086-.755c-.002-.417-.036-.446-.634-.536-.348-.052-.686-.04-.752.027-.105.105.002 1.17.353 3.514l.094.63-1.017.291c-.56.16-1.666.482-2.459.715-.793.233-1.453.41-1.467.391-.014-.017-.131-.514-.26-1.103-.232-1.054-.241-1.07-.606-.98-.204.05-.391.143-.416.207-.026.065-.157.117-.292.117-.21 0-.289-.294-.552-2.038-.168-1.121-.318-2.13-.332-2.244-.014-.113-.143-.228-.286-.256-.244-.047-.256.018-.169.966.052.559.19 1.575.308 2.26.197 1.14.31 2.152.376 3.368l.025.466-1.105.331c-.608.182-1.193.314-1.3.294-.187-.037-.748-2.271-.621-2.477.03-.049.537-.195 1.126-.324.59-.13 1.115-.275 1.168-.325.086-.08-.527-4.435-.64-4.549-.026-.025-.384-.028-.796-.005l-.75.042.234 1.589c.128.874.194 1.632.146 1.684-.048.053-.926.257-1.952.455l-2.246.434c-.447.087-.45.134-.124 1.71.272 1.312.189 1.257 1.557 1.038l.638-.103.185.93c.101.511.258.957.347.992.15.057 1.291-.215 2.13-.508.296-.104 4.832-1.466 7.185-2.158.418-.123 1.027-.307 1.354-.408.457-.142.606-.147.645-.02.534 1.724.897 2.705 1.326 3.579l.522 1.064-.645.403c-.355.221-1.143.675-1.751 1.008-.608.333-1.208.668-1.334.744-.494.3-3.062 1.728-3.106 1.728-.026 0-.21-.257-.408-.571l-.36-.572.37-.296.372-.296-.245-.514c-.135-.283-.298-.515-.362-.515-.259 0-2.043.982-2.043 1.125 0 .114 1.242 2.645 1.473 3.002.018.028.487-.214 1.042-.538 1.027-.6 4.262-2.442 5.637-3.21.418-.234.947-.539 1.175-.678.228-.139.453-.252.5-.253.047 0 .323.407.614.905.291.497.867 1.277 1.28 1.734l.75.829-.328.367c-.181.201-.391.438-.467.526-1.033 1.191-4.98 5.035-5.17 5.035a.15.15 0 0 1-.15-.148c0-.223-1.418-1.787-1.62-1.787-.406 0-.122.602.666 1.406l.842.86-.946.866c-.52.477-1.018.868-1.106.87-.088.006-.33-.197-.536-.444-.86-1.026-2.737-3.005-2.85-3.005-.069 0-.16.092-.203.205-.05.132.368.69 1.162 1.555.683.742 1.476 1.613 1.764 1.936.288.323.592.587.675.587.144 0 5.75-5.19 6.654-6.16l.426-.456.956.892c.526.491 1.157 1.032 1.403 1.201.712.492.703.713-.068 1.588-.241.273-.296.286-.448.103-.095-.114-.266-.208-.38-.208-.164 0-.173-.04-.043-.197s.113-.226-.087-.336c-.138-.076-.592-.483-1.01-.905-.732-.738-1.244-.978-1.244-.584 0 .104.311.48.692.836.581.543.67.69.552.91-.182.339-1.03 1.324-2.264 2.63a60.054 60.054 0 0 0-1.743 1.934 53.4 53.4 0 0 1-1.643 1.823l-.884.93.33.278c.317.267.922.508 1.006.401.79-.998 2.298-3.034 2.419-3.263.09-.171.257-.311.371-.311.308 0 1.717 1.08 1.717 1.317 0 .289-.135.25-.75-.216-.512-.387-1.047-.541-1.047-.302 0 .06-.497.788-1.105 1.619-1.129 1.542-1.192 1.657-.988 1.783.102.063 1.448-1.634 2.153-2.714l.246-.379.35.275c.192.151.428.275.525.275.096 0-.316.727-.917 1.617-.601.889-1.093 1.66-1.093 1.711 0 .353 6.887 3.808 7.105 3.564.158-.177 2.982-7.959 2.982-8.218 0-.059-1.544-.747-1.675-.747-.066 0-.121.072-.121.161 0 .279-.851 1.5-.987 1.416-.174-.108-.03-.523.476-1.362.232-.384.436-.718.453-.743.018-.025.27.102.563.282.292.18.796.442 1.119.584.322.141.587.3.587.35 0 .052-.147.462-.327.912-.392.985-.848 2.66-.75 2.758.311.312 1.026-1.432 2.11-5.152.109-.373.074-.372 1.114-.046.46.144 1.376.37 2.038.501 1.43.284 1.347-.029.854 3.22-1.007 6.64-1.063 6.93-1.342 6.93-.184 0-.24-.072-.19-.242.265-.904 1.185-7.005 1.072-7.117-.205-.205-.389-.018-.474.481l-.508 3.01c-.238 1.405-.464 2.664-.504 2.797-.098.328-.543.307-2.126-.103-1.548-.401-1.658-.41-1.658-.138 0 .247.015.246-.532.055-.443-.154-.507-.328-.345-.933.078-.29.145-.317.604-.243.568.09.732-.028.876-.631.06-.251.017-.442-.136-.594-.352-.352-.127-.405.78-.184.973.238.953.254 1.24-.994.27-1.175.322-1.236.93-1.095.287.067.562.123.613.125.09.005.391-1.211.391-1.578 0-.12-.304-.24-.848-.335-.922-.163-1.086-.127-1.086.238 0 .404-.262.557-.725.425-.538-.155-.625-.092-.741.532-.053.283-.21.78-.348 1.104-.23.54-.285.583-.635.5a9.256 9.256 0 0 0-.501-.106c-.064-.01-.244.325-.399.743a160.88 160.88 0 0 1-.815 2.122c-.294.749-.534 1.407-.534 1.463 0 .158 2.645.923 4.571 1.32 2.003.415 4.337.719 5.704.743l.948.018zm-13.217-3.982c-1.682-.813-3.73-2.045-3.724-2.24.006-.249.494-.79.71-.79.346 0 1.2.683 1.244.996.033.228.366.485 1.274.984 1.152.633 1.24.66 1.379.419.082-.142.66-1.299 1.284-2.572 1.07-2.18 1.12-2.322.867-2.457-.391-.21-.342-.532.074-.487.394.044.763.31.763.553 0 .259-2.398 5.804-2.617 6.053-.05.057-.615-.15-1.254-.459zm-1.192-3.238c-.055-.145.12-.528.477-1.047l.564-.818-.821-.558c-.453-.307-.822-.64-.822-.741 0-.101.113-.332.252-.513.325-.423.437-.736.322-.899-.05-.07-.355-.335-.678-.586-.477-.37-.602-.417-.668-.245-.045.117.047.35.207.52.322.346.379.675.116.669-.182-.005-1.071-.759-1.071-.908 0-.048.323-.469.717-.935l.814-.963c.053-.064.36.076.685.31.829.601 1.132.563 1.578-.198.202-.344.412-.597.467-.563.055.034.627.418 1.27.853 1.398.947 1.967 1.21 2.171 1.006.169-.168 1.141.235 1.141.473 0 .08-.106.48-.235.89-.274.87-.287.872-1.84.116l-.963-.468-.255.368c-.14.203-.294.477-.342.61-.098.271-.444.323-.589.088-.056-.091-.29-.121-.58-.074-.36.058-.576.007-.83-.192-.19-.149-.42-.27-.51-.27-.164 0-.589.651-.477.73.032.023.42.286.863.584.442.298.831.585.864.638.102.164-1.271 2.259-1.512 2.306-.125.025-.267-.057-.315-.183zm5.616-4.557c0-.112-.261-.337-.58-.5-.544-.278-1.636-.947-2.49-1.528-.205-.14-.404-.254-.442-.254-.08 0-.91 1.188-.91 1.303 0 .043.076.078.17.078.093 0 .537.227.985.504.72.444.83.476.943.276.168-.3.757-.279 1.356.05.585.32.968.348.968.071zm-4.73-.797c-.059-.186-1.301-1.07-1.504-1.07-.067 0-.122.108-.122.24 0 .144.268.396.656.619.712.408 1.056.483.97.21zm4.868-1.358c-1.02-.54-2.479-1.406-3.16-1.876-.029-.02.154-.302.406-.629.252-.326.474-.616.493-.643.02-.027.218.082.443.242.561.4.885.366 1.173-.121l.244-.413 1.1.553c1.035.52 1.096.576 1.01.918-.067.267-.025.414.159.548.242.177.241.211-.015.966-.425 1.254-.37 1.24-1.854.455zm-5.028-3.389c-.644-.577-1.209-1.147-1.254-1.266-.091-.237.552-1 .844-1 .322 0 .703.543.635.903-.07.362.085.444.344.184.086-.086.26-.117.384-.069.172.066.206.188.138.499-.13.59.02.757.438.484.321-.211.356-.21.527.025.101.138.147.314.101.39-.285.484-.66.9-.81.9-.097 0-.703-.472-1.347-1.05zm1.29-1.728-1.161-1.12.323-.261c.411-.334.598-.33.813.015.229.366.469.348.856-.064l.32-.34.558.478c.307.263.61.479.672.479.062 0 .113.072.113.161 0 .25-1.017 1.77-1.184 1.772-.082 0-.67-.503-1.31-1.12zm9.06.124c-.303-.065-.606-.174-.675-.242-.074-.074.005-.52.195-1.098.278-.85.355-.964.605-.9.158.039.43.082.606.095.245.02.303.088.251.304-.036.155-.11.592-.162.972-.135.963-.176 1.007-.82.87zm-2.766-1.254c-1.362-.724-1.865-1.057-1.865-1.233 0-.074.344-.642.765-1.262.871-1.283 2.364-3.45 2.724-3.957l.241-.34.216.307c.118.168.298.307.4.307.154 0 .352.278.352.495 0 .174-.373.017-.52-.219-.096-.152-.225-.276-.287-.276-.19 0-1.012 1.233-.92 1.381.136.222.32.161.414-.137.114-.358.319-.35.723.03.404.38.654.254 1.102-.552l.316-.567-.83-.513c-.458-.282-.808-.536-.78-.565.029-.028.484.18 1.012.463l.96.514-.548 1.459c-1.425 3.792-2.01 5.191-2.182 5.221-.103.017-.685-.232-1.293-.556zm1.666-.862c.186-.42.338-.854.338-.965 0-.205-.94-.759-1.289-.759-.107 0-.344.291-.526.646-.354.687-.671.925-.675.506a1.02 1.02 0 0 0-.13-.455c-.109-.173-.168-.165-.412.056-.41.372-.354.588.234.885.285.145.767.392 1.07.55.86.448 1.009.398 1.39-.464zm-5.353 1.107c-.051-.052-.063-.175-.025-.274.038-.099.005-.22-.073-.268-.096-.06-.092-.198.015-.432.184-.404.005-.67-.356-.532-.158.061-.206.178-.148.362.073.23.048.25-.168.133-.14-.076-.458-.35-.705-.607l-.45-.468.406-.39.406-.389.977.874c.537.481.976.942.976 1.025 0 .228-.747 1.073-.854.966zm-.68-1.914c.119-.144.106-.231-.055-.365-.174-.144-.26-.132-.483.07-.148.134-.237.298-.196.364.114.184.558.142.733-.07zm-1.788.941c-.13-.156-.113-.278.081-.574.231-.352.253-.358.353-.104.247.634-.065 1.123-.434.678zm-2.611-1.03c-.396-.534-.875-1.246-1.064-1.584l-.343-.613.941-.488c.518-.268 1.201-.647 1.518-.843l.577-.355.571.841c.315.463.757 1.052.982 1.309l.41.467-1.246 1.117c-.686.615-1.332 1.118-1.436 1.118-.104 0-.514-.436-.91-.97zm2.77-.828c.068 0 .124-.066.124-.147 0-.184-.687-1.096-.825-1.096-.056 0-.286.17-.511.38-.225.209-.589.508-.808.666l-.398.285.331.475c.183.26.393.516.468.567.075.051.442-.182.816-.518.374-.337.736-.612.803-.612zm9.312 1.222c-.428-.264-.455-.425-.184-1.118.169-.43.174-.432.539-.237.274.147.359.91.154 1.39-.084.198-.136.195-.509-.035zm-6.563-.886c-.494-.417-.914-.803-.933-.858-.02-.055.203-.329.492-.61l.526-.51.377.4c.207.22.593.477.858.573.264.096.464.208.443.249-.268.539-.808 1.525-.833 1.52-.017-.002-.436-.347-.93-.764zm1.173-.056c.138-.224-.168-.644-.694-.954-.585-.346-.617-.35-.617-.101 0 .194.944 1.19 1.128 1.19.054 0 .137-.06.183-.135zm-.053-1.699c-.63-.607-.704-.728-.483-.789.144-.04.628-.46 1.077-.935.448-.475.852-.862.898-.86.045.002.322.227.616.5l.533.495-.288.288-.288.288-.342-.32c-.368-.347-.335-.36-.966.375-.261.304-.26.312.046.638.279.297.292.367.126.684l-.185.353zm-2.54.369c-.054-.055-.1-.139-.1-.185 0-.156 5.125-5.016 5.205-4.936.043.043-.38.538-.94 1.098-.56.56-1.36 1.401-1.778 1.869-.418.468-.832.851-.92.853-.088.002-.431.318-.763.702-.331.385-.648.654-.703.599zm-5.942-1.341c-.497-.76-1.62-3.654-1.62-4.174 0-.087.265-.226.588-.308.323-.082.952-.252 1.398-.378.446-.125.882-.2.968-.167.087.034.24.364.338.734.1.37.455 1.215.792 1.877l.612 1.203-.931.509c-.513.28-1.056.583-1.208.673-.564.333-.736.339-.937.03zm.684-.683a8.86 8.86 0 0 0-.164-.729c-.07-.234.033-.329.614-.574l.696-.295-.295-.71c-.225-.542-.347-.689-.516-.62-.121.05-.49.184-.818.3-.33.115-.632.298-.674.406-.087.227.43 1.897.73 2.36.302.464.523.393.427-.138zm1.201-.33c.588-.587.403-.866-.398-.602-.36.12-.481.237-.481.47 0 .609.35.661.88.132zm11.004.641c0-.076.062-.138.138-.138.076 0 .138.062.138.138a.138.138 0 0 1-.276 0zm-2.106-1.297-.517-.457.546-.574c.3-.315.595-.572.655-.57.06.003.29.164.512.359l.402.353-.25.437c-.29.507-.63.923-.749.914-.045-.002-.314-.21-.599-.462zm-7.363-.279c-.37-.566-1.172-2.575-1.206-3.027-.023-.29.034-.443.174-.472.144-.029.285.2.463.755.14.438.47 1.224.734 1.746.45.893.513 1.33.192 1.33-.077 0-.237-.149-.357-.332zm1.08-.808c-.44-.749-1.169-2.606-1.097-2.794.038-.097.253-.24.478-.319.4-.14.412-.13.491.366.045.28.163.62.263.757.173.237.212.236.906-.038.4-.157.822-.286.94-.286.431 0 .08.345-.649.638-.412.166-.77.397-.793.515-.054.265.21.782.399.782.262 0 1.913-1.037 1.919-1.206.007-.244-.583-1.42-.713-1.42-.061 0-.111.062-.111.137 0 .075-.208.223-.461.329-.996.416-1 .415-1.184-.2-.094-.313-.15-.583-.127-.6.025-.018.51-.171 1.08-.34.57-.17 1.543-.479 2.16-.688l1.124-.38.434.88c.239.484.402.932.362.996-.152.246-1.343.853-1.532.78-.109-.041-.198-.202-.198-.356 0-.295.2-.378.345-.143.12.193.214.175.723-.135l.447-.273-.288-.487c-.158-.268-.343-.522-.41-.564-.156-.096-1.765.348-1.868.515-.042.068.116.535.351 1.037l.428.914-.313.22c-.24.17-1.668 1.08-2.752 1.756-.05.031-.21-.146-.354-.393zm1.558-2.926c.178-.132.222-.244.13-.336-.165-.163-1.037.164-1.037.389 0 .211.595.177.906-.053zm5.404 26.935c.474-2.403.476-2.35-.086-2.35h-.477l-.267 1.085c-.262 1.06-.276 1.083-.644 1.01-.339-.069-.391-.023-.534.45-.28.934-.23 1.055.499 1.216 1.201.265 1.173.292 1.509-1.411zm4.558-3.696c-.043-.4-.119-1.114-.168-1.59-.086-.84-.1-.863-.49-.863-.22 0-.447-.002-.504-.005-.1-.005-.418 1.914-.439 2.656-.01.388.122.44 1.284.505l.396.023zm-20.68-1.07.856-.966-.795-.904-.794-.905-.407.385-.407.385-.826-.898c-1.75-1.902-3.292-3.744-3.292-3.93 0-.217.638-.768.889-.768.088 0 .397.31.687.69.29.38.607.692.706.692.098 0 .67-.389 1.268-.864 2.047-1.622 2.783-2.176 2.893-2.176.06 0 .345.23.633.511l.523.511.484-.469c.511-.495.623-.83.277-.83-.114 0-.207-.062-.207-.137 0-.22-.254-.161-.54.125-.26.26-.27.259-.577-.069-.172-.183-.411-.332-.53-.33-.12.002-.672.343-1.226.759-.554.416-1.18.846-1.391.955-.212.11-.466.297-.565.416-.301.363-.465.25-1.148-.788-.58-.882-.63-1.016-.428-1.138a2.4 2.4 0 0 0 .446-.38c.338-.376.497-.298 1.06.518.53.77.714.883.989.608.184-.184-.747-1.766-1.044-1.776-.236-.008-1.54.718-1.54.857 0 .308-.315.008-.759-.722-.59-.973-.665-1.032-1.044-.829-.37.198-.575.034-.966-.774-.163-.336-.368-.61-.456-.608-.089.002-.534.187-.99.412-.99.487-1.036.493-1.036.138 0-.152.054-.277.12-.277.067 0 .716-.275 1.441-.612l1.32-.613-.153-.498c-.114-.371-.208-.475-.37-.408-.52.216-.7.223-.7.028 0-.11.157-.272.348-.36.345-.157.346-.163.125-.678a21.251 21.251 0 0 1-.362-.9c-.076-.21-.179-.38-.228-.38-.2-.001-4.52 1.3-4.63 1.393-.066.056-.042.34.053.632.395 1.222 2.73 6.127 2.916 6.127.054 0 .647-.322 1.318-.716a58.96 58.96 0 0 1 1.831-1.037l.612-.32.39.588c.214.323.39.65.39.725 0 .076-.777.628-1.727 1.226-.95.598-1.727 1.157-1.727 1.243.002.47 2.452 3.405 4.714 5.65 1.36 1.348 2.528 2.452 2.596 2.452.068 0 .508-.435.98-.966zm14.485-.047c.026-.137-.044-.23-.173-.23-.128 0-.217.118-.217.287 0 .337.322.29.39-.057zm-12.77-1.972c.273-.273.496-.573.496-.665 0-.198-.713-.91-.912-.91-.075 0-.377.246-.67.547l-.534.546.54.487c.297.267.55.488.56.49.012.001.245-.221.52-.495zm2.484-2.688c.655-.687 1.19-1.328 1.19-1.422 0-.095-.238-.405-.53-.69l-.53-.517-.952.978c-1.091 1.12-1.222 1.312-1.102 1.624.067.174.311-.017 1.082-.837.548-.585 1.036-1.063 1.085-1.063.049 0 .123.089.164.197.046.119-.28.57-.824 1.14-.893.936-1.23 1.471-1.08 1.715.15.242.314.118 1.497-1.125zm13.263.526c.177-.66.118-.726-.893-.986-1.038-.268-1.157-.235-1.303.355-.085.346-.05.382.509.526.33.085.755.208.945.274.543.188.653.163.742-.17zm-18.159-.497.616-.531-.74-.85c-.718-.826-.902-.964-.998-.748-.025.057-.279.278-.564.491-.285.213-.518.46-.518.548 0 .158 1.369 1.622 1.515 1.62.04 0 .351-.238.69-.53zm2.289-2.06c.184-.209.336-.43.339-.492.005-.148-1.14-1.476-1.274-1.477-.174 0-.115.394.076.512.26.16.831 1.01.74 1.102-.09.09-.8-.593-1.012-.973-.163-.292-.737-.203-.737.114 0 .217 1.21 1.594 1.402 1.594.072 0 .282-.17.466-.38zm18.341-1.174c.117-.349-.073-.643-.473-.73-.474-.105-.462-.112-.58.376-.08.338-.048.376.361.427.248.03.491.065.542.078.05.012.118-.056.15-.15zm-28.213-.178c.87-.45 2.754-1.73 2.754-1.872 0-.156-.3.012-2.177 1.216-1.033.663-1.284.868-1.064.868.042 0 .261-.095.487-.212zm14.186-.02c-.128-.129-.272-.195-.32-.148-.136.136.073.381.325.381.21 0 .21-.02-.005-.233zm12.651-.285c.04-.209.063-.388.05-.399-.012-.01-.468-.144-1.015-.298l-.992-.278-.137.393c-.104.296-.091.43.051.549.265.22.878.387 1.468.401.442.01.51-.033.575-.368zm-20.868-.07c.079-.224-.72-1.346-.959-1.346-.282 0-.22.302.193.94.377.582.653.729.766.407zm18.454-.505c.165-.475.148-.497-.645-.848-.77-.34-.774-.34-.967.082-.215.474-.243.429.496.814.846.44.947.436 1.116-.048zm-11.988-.432c.36-.192.336-.438-.078-.798-.19-.165-.345-.347-.344-.405.002-.057.318-.278.703-.49.581-.321.672-.421.534-.588-.092-.11-.244-.2-.339-.2-.17 0-1.729 1.399-1.729 1.551 0 .092.854 1.074.933 1.074.03 0 .173-.065.32-.143zm-4.556-.28c.503-.358.502-.517-.004-1.154-.223-.281-.428-.578-.455-.66-.053-.158-.848.188-1 .435-.07.114.274.731.824 1.478.174.237.16.239.635-.1zm14.787-.312c.09-.334.038-.408-.51-.73-.336-.196-.61-.413-.61-.482 0-.258-.392-.112-.615.23-.288.438-.159.63.744 1.099.746.388.86.375.991-.117zm-13.184-.588.467-.357-.489-.68c-.269-.374-.488-.743-.488-.82 0-.17-.986.313-1.222.598-.135.163-.062.333.392.908.308.389.63.707.716.707.086 0 .367-.16.624-.356zm2.046-.823c.448-.4.636-.652.534-.72-.087-.057-.251-.322-.366-.588-.338-.786-.565-1.013-.904-.906-.424.135-.377.339.234 1.008.393.43.492.62.372.72-.116.096-.292-.031-.604-.437-.242-.315-.44-.655-.44-.756 0-.1-.035-.182-.077-.182-.196 0-.89.438-.89.561 0 .27 1.175 1.932 1.358 1.921.05-.005.403-.282.783-.621zm-9.189-1.022c0-.277-.34-.7-.563-.7-.199 0-.152.26.114.626.294.404.45.43.45.074zm3.504-.079c.044-.114.19-.208.326-.21.62-.004.614-.188-.047-1.596-.355-.755-.665-1.396-.69-1.426-.026-.03-.43.112-.9.316-.47.204-.904.322-.963.262-.132-.135-.954-2.175-.954-2.37 0-.138-1.195.19-1.42.39-.09.08.994 2.941 1.19 3.138.038.037.214-.028.391-.144.178-.116.737-.368 1.244-.558 1.041-.392.976-.425 1.542.761.433.907.462 1.139.128 1.035-.337-.105-.614.102-.508.379.11.287.554.302.661.022zm1.862-.88c.177-.113-.27-1.331-1.37-3.73-.311-.678-.23-.673-1.854-.113-1.047.361-1.192.557-.826 1.116l.227.347.877-.318.877-.318.78 1.568c.76 1.527.906 1.69 1.29 1.447zm1.332-.84c.045-.073-.265-.822-.687-1.665-.423-.843-.735-1.587-.695-1.653.041-.066.51-.29 1.041-.499.532-.208.966-.432.966-.497 0-.066-.077-.367-.171-.67-.115-.367-.253-.55-.415-.55-.133 0-.25.078-.257.173-.009.095-.024.297-.035.449-.028.398-.582.45-.683.064-.061-.235-.143-.277-.398-.201-2.536.752-4.81 1.552-4.81 1.691-.002.298.71.19 2.038-.312.704-.265 1.332-.482 1.396-.482.063 0 .215.254.337.565.122.31.28.529.35.486.069-.043.16.135.203.396.13.804 1.194 2.836 1.485 2.836.14 0 .29-.059.335-.132zm.764-.84c0-.254-1.021-2.098-1.2-2.167-.304-.116-.36.041-.195.538.29.868.966 1.906 1.188 1.821.113-.044.207-.13.207-.192zm.967-.623c0-.124-.134-.202-.346-.202-.242 0-.345.075-.345.253 0 .14.04.293.087.34.137.137.604-.166.604-.39zm-14.258-.683c.036-.036-.16-1.076-.433-2.313-.579-2.615-.718-3.424-.59-3.424.051 0 .541-.09 1.089-.199.548-.109 1.47-.272 2.05-.362.58-.09 1.138-.214 1.238-.276.15-.092.155-.37.03-1.495-.085-.76-.19-1.44-.233-1.51-.044-.072-.905-.17-1.913-.219a157.3 157.3 0 0 1-2.996-.174l-1.162-.085.082 1.158c.17 2.396.85 5.81 1.643 8.254.28.863.292.876.708.793.233-.047.452-.114.487-.149zm13.634.07c.045-.074-.022-.294-.15-.488-.229-.35-.226-.357.202-.518.439-.166.535-.42.3-.79-.11-.176-.215-.162-.752.099-.605.294-.619.314-.477.722.08.23.202.419.27.419.07 0 .125.155.125.345 0 .345.314.482.482.211zm-12.114-.577c.292-.108.311-.172.224-.774-.053-.361-.125-.707-.161-.77-.072-.124-1.15.015-1.316.17-.058.053-.034.45.053.882.17.85.198.862 1.2.492zm4.245-2.192c.35-.134.362-.17.27-.863-.053-.399-.143-.775-.202-.837-.085-.092-1.61.247-1.778.395-.025.022.027.395.117.828l.163.786.532-.085c.292-.047.696-.148.898-.224zm4.031-1.302c.016-.01-.057-.391-.162-.844-.105-.453-.301-1.647-.437-2.654l-.247-1.83H80.237v.552c0 .494-.036.553-.337.553-.185 0-.364.046-.396.103-.032.057.003.59.078 1.183l.137 1.079.699-.043.698-.043.204 1.068c.2 1.045.212 1.067.563.983a3.41 3.41 0 0 0 .387-.107zm2.416-.614c.336-.128.365-.194.3-.667-.115-.815-.152-.87-.599-.87-.396 0-.419.03-.419.553 0 .46-.046.553-.276.553-.276 0-.389.394-.174.609.114.113.596.04 1.168-.179zm7.962-2.44c-.025-.192-.106-.349-.182-.349s-.158.157-.182.35c-.031.249.02.35.182.35.16 0 .213-.101.182-.35zm-7.436.006c0-.22-.485-.29-.61-.089-.102.165.055.296.357.296.139 0 .253-.093.253-.207zm-1.195-.57 1.223-.224-.083-.415a4.27 4.27 0 0 1-.083-.605c0-.22-.63-.262-.76-.052-.047.076-.02.138.06.138.081 0 .147.124.147.274 0 .292-.138.343-1.313.487-.958.117-1.174.195-1.174.423 0 .26.459.254 1.983-.026zm4.685-.258c.508-.04.706-.245.59-.61-.06-.19-.208-.29-.428-.29-.266 0-.336.072-.336.346 0 .215-.078.345-.207.345-.13 0-.207-.13-.207-.345 0-.253-.074-.345-.277-.345-.22 0-.276.092-.276.46 0 .557.1.676.467.56.154-.05.458-.104.674-.12zm-5.891-.59c.1-.066.114-.214.039-.413-.086-.229-.227-.311-.535-.311-.347 0-.42.056-.42.322 0 .178.042.364.093.415.122.122.628.114.823-.015zm1.123-.17c.095 0 .173-.094.173-.209 0-.144-.146-.207-.484-.207-.4 0-.484.05-.484.293 0 .235.06.276.311.209.171-.046.389-.084.484-.085zm23.664 34.716c0-.285.062-1.047.139-1.693.27-2.299 1.027-10.806 1.31-14.716l.561-7.738c.193-2.66.376-4.91.406-5.001.03-.09.526-.395 1.102-.675 1.887-.92 3.377-2.661 4.337-5.067.141-.353.21-.38.95-.382.438 0 1.823-.092 3.077-.204 1.254-.11 4.705-.39 7.669-.619 7.829-.606 10.127-.792 13.677-1.105 1.747-.155 3.389-.281 3.649-.281h.472l-.086 1.762c-.232 4.772-1.73 10.228-4.117 14.987-3.903 7.786-10.073 13.83-18.017 17.648-2.386 1.146-5.835 2.294-8.705 2.897-1.55.325-4.597.701-5.7.703l-.725.001zm4.362-.915.956-.156-.045-.45c-.025-.248-.283-1.771-.574-3.386-.291-1.614-.52-2.939-.508-2.944.013-.005.7-.173 1.53-.375.829-.201 1.56-.417 1.623-.48.063-.064.02-.48-.095-.924-.116-.444-.184-.834-.153-.865.077-.077.386.795.931 2.619.342 1.144.499 1.485.683 1.485.131 0 .65-.193 1.154-.429.869-.406 1.327-.45 1.327-.125 0 .08-.171.21-.38.286-1.3.476-2.108.885-2.108 1.068 0 .188.539 2.124.614 2.205.085.094 3.1-1.049 3.361-1.274.02-.017-.162-.456-.405-.976-.414-.886-.426-.953-.193-1.091.812-.48.82-.505.414-1.231-.205-.367-.445-.694-.534-.728-.09-.034-.727.188-1.417.494-.69.307-1.378.557-1.529.557-.218 0-.362-.241-.707-1.188-.468-1.286-.543-1.851-.244-1.851.104 0 .346-.124.537-.275.424-.333.465-.292 1.043 1.03.4.919.463 1.45.114.972-.254-.347-.915-.05-.915.41 0 .427.24.448.94.084a20.6 20.6 0 0 1 1.46-.644c.917-.366.954-.37 1.105-.117.086.144.394.682.684 1.196l.528.934-.493.291c-.272.16-.494.381-.494.492 0 .266.393 1.016.532 1.016.06 0 .471-.196.913-.435l.803-.435.255.331c.14.182.256.37.258.417.005.123-1.758.965-3.431 1.64-1.504.606-4.701 1.609-5.582 1.75-.46.074-.518.128-.518.48 0 .218.046.397.103.397.057 0 .757-.158 1.555-.35 2.471-.594 5.767-1.79 8.014-2.906.617-.307 2.837-1.53 3.017-1.662.062-.045-1.494-2.405-1.585-2.405-.039 0-.34.158-.67.351l-.6.352-.337-.455a9.386 9.386 0 0 1-.43-.622c-.06-.106.368-.474 1.188-1.02 1.727-1.151 1.929-1.342 1.756-1.665-.196-.366-.461-.321-1.022.172-.333.292-.566.398-.73.333-.204-.08-.15-.175.346-.605.323-.281.587-.558.587-.616 0-.182-.598-.923-.744-.923-.14 0-.425.176-2.227 1.376-.983.655-3.234 1.865-3.31 1.78a75.479 75.479 0 0 1-.956-1.798l-.915-1.75.465-.288c.256-.158.502-.288.547-.288.236 0 1.336-.786 1.336-.954 0-.109-.22-.598-.49-1.089-.27-.49-.471-.907-.449-.925.023-.02.305-.2.628-.4.323-.201.588-.427.588-.502 0-.229.232-.154.535.174.158.171.76.964 1.338 1.762 1.524 2.104 1.385 1.993 1.95 1.562.32-.244.518-.316.613-.22.175.174-.78 1.036-2.204 1.988l-1.016.68-.24-.313c-.131-.171-.45-.67-.709-1.106-.258-.437-.553-.795-.655-.795-.145 0-1.253.566-1.536.785-.128.1.603 1.426.786 1.426.108 0 .384-.133.613-.296.343-.244.437-.262.542-.103.069.105.254.394.411.64.157.248.345.45.419.45.227 0 .924-.4 1.96-1.126a163.49 163.49 0 0 1 1.53-1.059l.536-.363.407.48c.224.263.856 1.132 1.406 1.93.55.798 1.39 1.994 1.869 2.657.8 1.11.893 1.194 1.166 1.05.558-.296 2.368-1.834 3.87-3.29 1.927-1.865 4.786-5.383 4.786-5.888 0-.1-.582-.586-1.293-1.082-1.704-1.189-1.692-1.171-1.334-1.872.16-.314.373-.602.474-.64.101-.04.852.374 1.668.918 1.243.828 1.515.958 1.669.803.583-.59 2.453-4.526 3.254-6.85.591-1.714.635-1.973.33-1.973-.259 0-2.571-.655-4.56-1.292-2.707-.866-2.849-.926-2.773-1.175.438-1.422.983-5.388.77-5.6-.087-.089-.186-.092-.265-.01-.105.108-.627 2.855-.94 4.944-.044.292-.148.557-.232.589-.084.032-.433-.034-.775-.147-.542-.179-.564-.2-.17-.163.249.022.517-.036.596-.131.181-.218.617-2.79.494-2.913-.05-.05-.425-.119-.833-.153l-.743-.061-.147.672-.306 1.39c-.087.396-.119.785-.07.864.05.08.04.146-.022.147-.1.002-5.183-1.217-7.314-1.755-1.247-.314-1.213-.267-1.064-1.48.126-1.028.122-1.05-.173-1.05-.268 0-.318.108-.447.98-.08.54-.173 1.009-.206 1.042-.034.034-.819-.112-1.745-.324l-1.683-.386.042-.553c.032-.41-.01-.552-.158-.552-.111 0-.24.155-.286.345-.099.402-.116.402-1.643.018-.639-.162-1.177-.278-1.196-.259-.02.02-.161.367-.315.773s-.542 1.196-.863 1.756l-.582 1.018-.38-.27c-.21-.149-.417-.27-.463-.27-.185 0-.064.388.194.621.152.138.277.295.277.35 0 .055-.41.46-.91.899l-.91.799-.321-.402c-.39-.488-.573-.37-.362.233.163.468.022.816-.331.816-.3 0-.792.485-.74.73.045.208.131.196.81-.12l.758-.352.277.352c.153.194.414.592.58.884l.3.53-.888.512c-.627.36-.889.592-.889.788 0 .152.087.31.194.351.245.094 1.59-.58 1.693-.848.043-.111.16-.202.259-.202.186 0 .756.814.756 1.08 0 .134-2.619 1.475-2.69 1.378a27.478 27.478 0 0 1-.423-1.214c-.426-1.271-.6-1.593-.77-1.422-.061.06.042.725.228 1.477.186.752.339 1.387.339 1.412 0 .025-.198.096-.44.159-.697.18-.676.478.031.427l.59-.042.249.756c.136.416.267.941.289 1.167.04.402.02.415-.927.632-.879.202-.97.256-1.01.592-.053.439.128.461 1.465.181.478-.1.89-.145.914-.1.025.044.248.702.495 1.462.248.76.498 1.434.556 1.498.085.093.917-.19 2.012-.682.157-.07 1.209 1.952 1.133 2.18-.054.162-1.726.914-2.276 1.024-.367.073-.4.039-.578-.59a53.673 53.673 0 0 0-.517-1.67c-.18-.553-.328-1.09-.328-1.193 0-.327-.355-.529-.54-.307-.149.18.002.959.472 2.44.068.212-.043.293-.644.472-.399.118-1.117.284-1.596.367-.868.151-.87.153-.87.62 0 .26.046.47.103.47.09-.002 2.33-.461 3.178-.653.221-.05.311-.005.311.15 0 .242-.716.48-2.553.85-1.147.23-1.31.339-1.314.873-.002.31.025.317.785.222.434-.054 1.35-.238 2.039-.408.688-.17 1.297-.283 1.354-.249.057.034.104.166.105.295.001.128.118.606.26 1.062.142.456.301 1.086.353 1.399l.095.57-1.259.31c-.692.172-1.286.285-1.318.252-.033-.033-.148-.48-.256-.993l-.195-.934.339-.129a1.99 1.99 0 0 1 .546-.129c.113 0 .485-.07.827-.156.601-.152.618-.17.528-.588a3.528 3.528 0 0 0-.117-.46c-.05-.06-2.502.547-2.61.646-.06.056.02.867.18 1.802s.267 1.83.239 1.99c-.098.552-.363-.396-.585-2.09-.116-.885-.238-1.636-.272-1.67-.033-.033-.28-.02-.55.032-.43.08-.49.142-.49.5 0 .362.048.408.415.408.24 0 .413.073.412.173-.002.296-.191.45-.549.45-.226 0-.36.088-.393.259-.044.225.01.248.415.172l.465-.087.343 2.522c.406 2.986.403 2.921.12 2.976-.172.033-.243-.11-.307-.62-.047-.365-.156-1.238-.244-1.941-.128-1.022-.205-1.278-.384-1.276-.521.005-.582.208-.788 2.636a108.66 108.66 0 0 1-.322 3.303c-.064.494-.087.95-.05 1.011.076.13 2.03-.002 3.435-.232zm15.609-10.483a74.287 74.287 0 0 1-2.328-2.688c-.699-.85-1.334-1.55-1.411-1.555-.078-.005-.37.148-.65.338-.279.19-.531.345-.56.345-.03 0-.255-.28-.5-.622-.531-.74-.493-.936.303-1.561.319-.25 1.09-.96 1.712-1.577l1.131-1.12 3.29 3.262 3.29 3.263-.828.846a34.7 34.7 0 0 1-1.61 1.53l-.782.681zm2.171-.697c.438-.397.795-.813.795-.924-.001-.234-1.371-1.666-1.585-1.656-.079.002-.507.341-.951.751-.544.503-.772.805-.7.927.24.4 1.379 1.628 1.508 1.626.076-.002.496-.328.933-.724zm-2.049-2.162.671-.681-.422-.528c-.232-.29-.642-.74-.912-.999l-.49-.47-.639.523c-.351.288-.67.604-.707.7-.076.199 1.449 2.136 1.68 2.136.082 0 .45-.307.82-.681zm-2.15-2.363c.386-.35.574-.62.522-.754-.044-.115-.129-.207-.188-.204-.227.01-1.437 1.24-1.354 1.373.152.246.4.146 1.02-.415zm-11.118 5.417a34.62 34.62 0 0 0-.205-.85c-.067-.263-.076-.517-.02-.563.155-.13 1.569-.684 1.743-.683.138 0 .707 1.146.707 1.423 0 .062-.482.321-1.07.578l-1.071.465zm14.93-5.674c-3.824-3.63-5-4.838-4.826-4.96.283-.199 1.567-1.918 1.806-2.418.135-.282.317-.514.405-.514.088 0 1.226.7 2.528 1.555 3.383 2.221 4.196 2.73 4.366 2.727.082 0 .615-.918 1.185-2.038.57-1.12 1.051-2.06 1.068-2.091.035-.06 1.704.656 1.863.798.054.049.041.18-.028.292-.107.173-.24.148-.887-.17-.754-.37-.992-.342-.824.097.134.349 1.93 1.211 2.086 1.002.201-.268 1.31-2.88 1.249-2.942-.03-.03-.82-.364-1.754-.74-.934-.377-1.729-.716-1.767-.754-.038-.038.031-.365.154-.726.123-.36.177-.7.12-.754-.13-.122-1.177-.411-1.244-.344-.028.028-.423 1.036-.88 2.242-1.116 2.95-1.77 4.334-2.044 4.332-.121 0-.62-.265-1.107-.587-1.212-.8-2.263-1.461-2.43-1.527-.078-.031-.04-.168.087-.317.124-.144.326-.46.448-.702.218-.43.215-.446-.148-.731-.544-.428-.894-.316-1.145.366-.178.483-.251.555-.452.443-.222-.124-.214-.183.104-.81.472-.932.965-2.27 1.32-3.59.326-1.208.45-1.298 1.321-.966.208.079.787.256 1.287.394 5.127 1.416 5.563 1.564 5.463 1.866-.053.16-.104.477-.114.705-.02.406.012.425 1.668 1.04.927.346 1.728.67 1.78.722.112.112-.03.491-.96 2.564-.618 1.38-.733 1.553-.981 1.474-.812-.255-.819-.252-1.25.546-.422.784-.58.895-.866.608-.124-.125-.066-.331.249-.88.226-.396.41-.756.41-.802 0-.046-.196-.185-.436-.31-.424-.218-.445-.215-.688.1-.138.18-.252.375-.254.433-.002.08-1.108 2.093-1.336 2.43-.02.028-.508-.267-1.089-.656-1.125-.752-1.309-.823-1.309-.504 0 .111.358.453.795.76.437.306 1.136.808 1.554 1.115.418.307.965.688 1.215.847.25.158.437.338.415.398-.045.121-2.115 2.742-2.642 3.345-.183.21-.39.38-.461.38-.07 0-1.432-1.237-3.024-2.748zm4.145.814c.39-.494.848-1.095 1.016-1.336l.305-.437-1.21-.89a55.428 55.428 0 0 1-1.78-1.36 9.957 9.957 0 0 0-.829-.623c-.252-.151-.251-.164.015-.462.27-.302.271-.309.008-.501-.336-.246-.415-.244-.628.012-.095.114-.225.208-.29.208-.064 0-.566-.386-1.113-.857-.62-.535-1.018-.791-1.055-.682-.032.097-.43.643-.884 1.215-.454.57-.805 1.054-.78 1.072.025.02.343.303.706.631.609.551.686.584.993.42.3-.16.386-.136.86.243.996.796 1.496 1.396 1.314 1.578-.09.091-.166.237-.166.325 0 .087.537.728 1.194 1.424 1.361 1.444 1.198 1.443 2.323.02zm-7.165-5.603.325-.422-.39-.23c-.38-.224-.399-.22-.755.15-.344.36-.352.4-.146.695.277.395.555.34.966-.194zm1.202-1.273.387-.509-.445-.388c-.524-.457-.654-.437-1.001.158l-.26.447.388.406c.214.223.424.403.467.4.043-.004.252-.234.464-.514zm4.707-.599c.268-.478.35-.748.254-.844-.096-.096-.262.04-.517.427-.207.313-.424.568-.481.568-.237 0-.233-.4.007-.766.14-.215.224-.443.185-.506-.107-.173-1.67-.939-1.915-.939-.22 0-.76.763-.761 1.074 0 .097.156.247.346.334.297.135.395.113.679-.154.365-.343.813-.339.88.01.027.143-.084.256-.31.312-.536.135-.422.442.27.726.34.14.62.302.621.36 0 .056.078.103.173.103.095 0 .35-.317.568-.704zm.08-2.025c.426-.935 1.252-3.242 1.252-3.5 0-.505-.434-.234-.68.426-.215.571-.269.619-.671.587-.418-.033-.46.012-.952 1.036-.284.59-.54 1.118-.57 1.176-.053.106 1.02.646 1.296.652.083.002.229-.168.324-.377zm-1.325-1.708.532-1.392.466.087c.418.079.474.051.556-.273.05-.2.035-.417-.032-.484-.203-.203-3.138-1.11-3.229-.998-.046.058-.296.776-.555 1.597-.35 1.11-.434 1.55-.328 1.719.148.234 1.675 1.138 1.92 1.137.075 0 .377-.628.67-1.393zm-1.569-.112c0-.279.178-.564.352-.564.248 0 .359.204.256.472-.089.231-.608.31-.608.093zm-12.763 11.223c-.495-1-.511-1.074-.28-1.243.135-.1.28-.18.323-.18.08.001.374.47.93 1.478l.32.58-.306.214c-.168.118-.341.215-.384.215-.042 0-.314-.479-.603-1.064zm-3.039-1.46c-.54-1.513-.75-2.251-.665-2.337.052-.052.342-.183.646-.293.304-.109.653-.24.776-.293.159-.068.247-.007.303.205.103.394.546.291 1.567-.361.41-.262.807-.477.883-.477.075 0 .241.218.368.484s.274.483.326.483c.169 0 .458.85.323.946-.944.673-2.182 1.383-2.819 1.615-.266.098-.712.275-.991.395l-.508.217zm3.327-1.114c.549-.317 1-.656 1.002-.754.008-.35-.419-.327-1.064.057-.362.216-.892.499-1.177.63-.365.167-.518.325-.518.535 0 .256.054.285.38.204.21-.052.829-.354 1.377-.672zm3.19.492a716.27 716.27 0 0 1-1.718-2.484l-1.07-1.553.613-.514c1.42-1.19 2.801-2.765 3.702-4.222.298-.482.573-.673.573-.398 0 .143-.87 1.431-1.45 2.148-.505.624-2.484 2.587-2.767 2.745-.113.063-.204.173-.204.245 0 .13 1.24 1.79 1.337 1.79.027 0 .328-.292.67-.648.407-.425.574-.695.485-.784-.222-.222-.834.134-.834.485 0 .265-.06.235-.477-.24l-.476-.54.303-.208c.167-.114.677-.6 1.133-1.08l.83-.872 1.588 1.634c.874.899 1.703 1.767 1.841 1.93.25.295.242.307-.898 1.4-1.645 1.577-2.236 2.094-2.393 2.095-.076 0-.43-.417-.787-.929zm2.329-1.305c.64-.624 1.144-1.222 1.123-1.33-.023-.107-.232-.344-.467-.525l-.428-.33-.515.485c-.592.56-.757.591-1.084.21-.13-.153-.285-.277-.344-.277-.06 0-.43.282-.824.627-.768.672-.818.951-.193 1.076.24.048.526.284.77.638.214.308.482.56.595.56.113 0 .728-.51 1.367-1.134zm-.478-2c.213-.204.387-.441.387-.526 0-.085-.216-.364-.48-.62-.48-.465-.481-.465-.792-.2-.65.554-.662.63-.197 1.19.238.287.492.523.564.524.072.002.305-.164.518-.368zm-4.628 3.78c-.042-.109.129-.29.424-.449.272-.146.579-.35.682-.452.148-.148.228-.152.391-.017.174.144.095.241-.517.635-.809.521-.88.542-.98.282zm-4.784-3.037c-.27-.713-.609-1.891-.554-1.926.178-.111 2.217-1.071 2.276-1.071.038 0-.034.158-.161.352-.28.428-.068.78.322.534.412-.26.549-.607.312-.79-.23-.179-.202-.695.032-.617.078.026.304.321.502.656.307.52.322.594.105.51-.172-.066-.336-.001-.513.203-.293.338-.303.389-.135.654.1.158.194.147.55-.064.237-.14.43-.312.43-.384 0-.071.128-.015.283.125.28.253.276.258-.463.678-.41.232-.841.502-.958.6-.117.097-.595.327-1.063.51l-.85.334zm1.132-.359.613-.262-.36-.772c-.236-.506-.444-.772-.603-.774-.205-.002-.23.082-.16.523.075.47.046.542-.274.688-.373.17-.417.273-.275.642.109.284.313.275 1.06-.044zm1.344.26c0-.08.109-.184.242-.233.133-.05.476-.243.763-.43.286-.188.557-.305.602-.26.074.074-1.352 1.065-1.531 1.065-.042 0-.076-.064-.076-.143zm7.999-1.976-.637-.587.395-.473c.218-.26.395-.514.395-.564 0-.05-.254-.266-.565-.482l-.566-.392-.26.339c-.144.186-.262.385-.264.442-.002.057-.101.104-.221.104-.254 0-.244-.033.218-.724.345-.516.599-.643.76-.382.126.204.622.168.622-.045 0-.1-.152-.326-.337-.5-.324-.304-.329-.332-.111-.68l.251-.404c.015-.023.328.145.698.372.37.227.993.604 1.383.836 1.109.662 1.12.696.497 1.633-.728 1.097-1.467 2.094-1.552 2.094-.038 0-.356-.264-.706-.587zm1.233-2.893c.025-.132-.036-.241-.137-.243-.1-.002-.338-.125-.528-.273-.728-.57-.948-.207-.269.442.453.433.859.465.934.074zm-7.77 2.637c-.197-.283-.186-.316.17-.533.493-.3 2.237-2.016 2.237-2.202 0-.356-.593-.067-1.342.654a32.94 32.94 0 0 1-.968.879l-.575.5-.834-1.12c-.71-.955-.799-1.135-.596-1.217.131-.053.544-.383.918-.734l.68-.637.667.658c.72.708.814.887.413.782-.168-.043-.378.08-.613.36-.197.233-.394.368-.437.299-.11-.18.048-.531.28-.62.228-.088.265-.36.048-.36-.192 0-1.228.86-1.231 1.023-.002.167.674 1.049.805 1.049.191 0 1.541-1.27 1.541-1.45 0-.098.109-.169.242-.158.145.01.258-.092.281-.259.029-.2-.48-.793-1.807-2.107-1.016-1.006-1.762-1.83-1.658-1.83.104 0 1.042.816 2.084 1.814 2.088 1.998 2.787 2.74 2.79 2.962.006.315-2.39 2.548-2.733 2.548-.083 0-.245-.136-.361-.301zm-.342-3.292c.05 0 .121-.155.157-.345.099-.515-.172-.427-.868.282-.463.471-.57.655-.43.74.12.075.332-.022.617-.281.238-.218.474-.396.524-.396zm9.484.225a6.656 6.656 0 0 1-.597-.396c-.042-.043.115-.417.35-.832.476-.844.48-.831-.53-1.341-.49-.247-.63-.27-.723-.12-.115.182-.038.27.637.73.21.142.238.228.119.352-.122.127-.244.108-.53-.08-.316-.206-.391-.213-.498-.047-.09.14-.026.278.22.478.458.375.438.535-.036.286-.884-.467-.92-.527-.622-1.058.147-.262.344-.71.438-.995.192-.58.415-.641 1.182-.321.535.223.626.162.882-.597.22-.654.2-.812-.118-.912-.281-.09-.395-.622-.133-.622.079 0 .67.132 1.313.293.933.234 1.169.344 1.169.546 0 .69-1.658 4.973-1.92 4.96-.046-.002-.317-.148-.603-.324zm-5.813-.015c-.308-.308-.294-.424.124-.971.292-.384.328-.516.202-.751-.084-.157-.264-.285-.4-.285-.253 0-.769.477-.868.802-.033.11-.355-.122-.831-.602-.752-.758-.769-.791-.525-1.035.139-.139.355-.409.48-.6l.229-.349.713.457c2.02 1.294 2.303 1.485 2.303 1.546 0 .135-.69 1.381-.939 1.694-.24.304-.272.31-.488.094zm-6.361-1.15c-.352-.512-.64-.964-.64-1.006 0-.041.33-.36.733-.709l.734-.633.337.255.337.256-.484.407c-.304.257-.539.362-.633.285-.09-.074-.254-.044-.414.075-.208.154-.233.249-.117.438.081.133.21.262.285.288.216.071 1.072-.556 1.223-.897.176-.398.229-.39.675.112l.374.42-.267.375c-.147.207-.545.575-.885.82l-.617.443zm1.604-.19c.392-.381.466-.53.265-.53-.218 0-1.128.865-1.128 1.072 0 .235.178.124.863-.542zm7.257-.746c-.044-.044.005-.241.108-.44.103-.198.415-1.054.694-1.901l.507-1.541.674.133c.519.102.675.193.675.391 0 .142-.063.258-.138.258-.247 0-.147.401.138.553.151.081.276.27.276.42 0 .322-.043.326-.76.068-.304-.11-.62-.202-.703-.206-.083-.002-.328.445-.545.996-.5 1.275-.677 1.517-.926 1.268zm-2.386-1.31c-.684-.45-1.287-.835-1.34-.855-.077-.028.66-2.495.811-2.715.02-.029.52.08 1.112.242a78.48 78.48 0 0 0 1.676.443c.591.144.6.154.512.622-.049.261-.288 1.05-.532 1.752-.348 1.006-.501 1.283-.719 1.304-.152.015-.836-.342-1.52-.793zm1.727.155c0-.383-1.376-1.18-1.804-1.044-.433.138-.317.299.526.734.819.423 1.278.534 1.278.31zm-5.7-.44c-.512-.46-.932-.916-.932-1.011 0-.096.115-.279.256-.406.242-.22.31-.197 1.244.412.543.353.987.705.987.78 0 .12-.535 1.074-.598 1.067a32.14 32.14 0 0 1-.956-.841zm1.232-1.228c-.36-.228-.702-.415-.761-.415-.059 0-.248-.131-.421-.292-.506-.472-.132-.66.408-.205.495.416 1.23.825 1.32.734.106-.105.606-1.604.606-1.814 0-.267-.09-.313-.842-.425-.624-.094-.641-.086-.939.418-.166.283-.339.478-.382.434-.13-.13.41-1.487.568-1.429.08.03.595.196 1.146.369.551.173 1.002.39 1.002.482 0 .093-.16.597-.357 1.121-.196.524-.39 1.062-.43 1.195-.099.321-.156.31-.918-.173zm15.799-.821c0-.325.176-.453.469-.34.166.064.184.144.076.346-.183.342-.545.338-.545-.008zm-18.161 29.155c1.518-.421 1.789-.545 1.602-.732a.662.662 0 0 1-.16-.409c0-.304-.398-.322-1.175-.053-1.121.389-1.203.365-1.403-.403-.1-.38-.182-.76-.183-.845-.002-.085.385-.264.86-.397 1.546-.433 1.514-.41 1.291-.93a11.634 11.634 0 0 1-.367-1.04 6.426 6.426 0 0 0-.189-.588c-.089 0-2.764.706-2.796.738-.023.022.173 1.126.438 2.45.264 1.325.48 2.424.482 2.443.005.11.756 0 1.6-.234zm.351-1.754c.644-.103.72-.192.549-.644l-.13-.34-.727.237c-.4.13-.753.311-.783.402-.098.294.1.604.33.516.12-.046.462-.122.761-.17zm11.622-2.226c-.335-.818-1.826-2.7-1.826-2.306 0 .209 1.61 2.541 1.757 2.544.106.002.132-.086.07-.238zm1.075-.474c0-.136-.88-1.547-1.105-1.772-.038-.038-.283-.38-.546-.76-.616-.893-.68-.929-1.103-.603-.195.15-.743.528-1.218.837-.55.359-.864.657-.864.821 0 .447.49.291 1.356-.433.454-.38.894-.69.976-.69.082 0 .259.17.392.38.134.208.306.45.383.535.077.086.414.537.747 1.002.562.782.982 1.074.982.683zm-18.127-1.115c-.027-.288-.117-.45-.25-.45s-.223.162-.25.45c-.037.379.001.449.25.449.248 0 .287-.07.25-.45zm3.206-.887c.796-.221.827-.247.827-.682 0-.25-.05-.485-.113-.524-.12-.073-1.643.245-1.767.37-.078.077.08 1.066.17 1.066.032 0 .429-.103.884-.23zm3.857-.272c.033-.03-.043-.27-.168-.533-.237-.495-.653-.553-.649-.09.005.59.167.858.465.767.161-.05.32-.115.353-.144zm4.447-3.666c.372-.241.676-.462.676-.49 0-.167-.442-.869-.546-.869-.094 0-1.096.697-1.511 1.051-.095.081.4.745.555.745.083 0 .455-.197.826-.437zm-10.003-1.689c.92-.172.937-.183.893-.579-.06-.56-.155-.616-.785-.474-.304.07-.786.162-1.07.208-.5.08-.519.103-.519.638 0 .49.033.546.272.47.15-.048.694-.166 1.21-.263zm-.064-1.418c.47-.076.518-.123.516-.515-.005-.726-.131-.813-.908-.616-.9.227-1.025.337-1.025.91 0 .472.01.482.45.394.246-.05.682-.128.967-.174zm.352-1.651c.69-.087.73-.114.691-.454-.046-.402-.04-.402-1.354-.118-.761.165-.905.243-.945.511-.042.29-.007.31.415.235.253-.045.79-.123 1.193-.174zm26.408.03c-.161-.146-2.5-1.747-2.745-1.878-.156-.083-.283-.098-.283-.032 0 .159 2.918 2.13 3.013 2.036.04-.04.047-.097.017-.125zm4.968-11.347c.554-2.157.985-5.065.985-6.643 0-.588-.025-.637-.294-.567-.161.043-1.373.154-2.692.249-1.32.094-2.455.207-2.525.25-.153.096-.424 1.794-.298 1.872.05.03.894.187 1.877.35.982.161 1.797.305 1.811.319.023.022-.158.842-.855 3.879-.12.523-.168 1.003-.105 1.065.169.17 1.616.523 1.72.42.05-.048.22-.586.375-1.194zm-3.992-.27c.12-.316.18-.334.819-.258.787.093.665.294 1.105-1.82.305-1.466.277-1.52-.833-1.652-.887-.105-.873-.12-1.022 1.077-.113.903-.13.909-1.575.568-.488-.115-.93-.16-.98-.102-.152.177-.445 1.71-.346 1.811.095.097 2.219.69 2.527.706.097.005.234-.144.305-.33zm-7.188-1.906c.07-.171.228-.808.352-1.416.124-.608.252-1.201.285-1.318.05-.18.2-.192 1.036-.076 1.133.156 1.229.09 1.232-.852.002-.686.177-.653-2.403-.453-1.083.084-1.684.189-1.76.307-.062.1-.115.529-.116.954-.002.771 0 .774.427.786.235.005.46.043.497.08.038.039-.01.514-.107 1.058-.15.84-.147 1.006.02 1.112.3.19.399.156.537-.182zm-1.048-.484c.19-.643.245-1.278.113-1.278a1.17 1.17 0 0 1-.337-.075c-.204-.078-.519.712-.519 1.3 0 .376.635.421.744.053zm-.995-1.287c.135-.717.277-1.479.316-1.693.062-.34.033-.384-.237-.345-.182.026-.324.156-.349.32-.131.877-.131.878-.686.749a7.817 7.817 0 0 0-.6-.124c-.115-.005-.448 1.931-.35 2.03.113.113 1.37.442 1.53.4.071-.02.24-.62.376-1.337zm8.89.735c.045-.285.103-.622.128-.75.03-.15-.074-.26-.304-.318-.442-.111-.525-.017-.691.786-.144.693-.098.768.48.789.247.01.32-.086.387-.507zm-1.073-1.52c.153-.97.251-1.807.22-1.862-.052-.088-1.284.007-1.406.108-.06.05-.431 2.66-.434 3.057-.002.306.204.4.981.44.36.02.365.007.64-1.743zm-10.28 1.381c.038-.133.146-.697.242-1.255.198-1.162.122-1.295-.705-1.233-.438.032-.49.081-.553.52-.066.463-.09.481-.579.439-.494-.043-.515-.026-.666.535-.183.677-.102.8.601.914.472.077.506.058.506-.27 0-.505.136-.79.378-.79.169 0 .193.112.12.561-.049.31-.053.62-.006.691.136.22.594.143.665-.112zm-2.594-1.323c.153-.934.136-1.06-.143-1.06-.156 0-.502 1.767-.387 1.976.167.303.394-.09.53-.916zm1.164-.792c0-.176-.095-.268-.276-.268-.174 0-.277.092-.277.247 0 .148.111.255.277.268.188.015.276-.065.276-.247zm-18.865 16.106c0-5.624.018-7.905.038-5.068.02 2.836.02 7.438 0 10.225s-.038.467-.038-5.157zm-1.668-12.077c-2.265-.616-4.278-2.662-4.966-5.047-.336-1.168-.23-3.315.217-4.363 1.253-2.942 3.68-4.614 6.697-4.614 1.936 0 3.317.542 4.67 1.832 1.383 1.32 2.054 2.568 2.328 4.331.385 2.473-.95 5.378-3.176 6.912-1.596 1.1-3.85 1.47-5.77.949zm3.107-1.404c2.37-.546 4.252-2.752 4.407-5.169.078-1.22-.213-2.334-.872-3.331-2.525-3.825-7.85-3.409-9.86.77-.459.955-.498 1.136-.499 2.287 0 1.165.035 1.321.51 2.28.79 1.591 1.866 2.549 3.428 3.05.858.276 1.987.32 2.886.113zm-1.272-.874c-.047-.123-.033-.223.03-.223.064 0 .189-.389.278-.864.088-.475.195-1.034.236-1.243.064-.325.028-.383-.247-.396-.277-.015-.284-.026-.051-.085.149-.038.407-.158.574-.268.177-.116.338-.144.384-.069.044.071-.03.159-.165.194-.19.05-.302.37-.5 1.432-.284 1.532-.404 1.872-.539 1.521zm-.355-1.228c-.085-.486-.154-1.08-.154-1.32 0-.264-.07-.438-.176-.438-.098 0-.635.219-1.194.487-.56.268-1.043.462-1.074.43-.031-.031.241-.198.606-.372.365-.173.82-.42 1.01-.549.292-.199.418-.21.827-.069.291.1.404.192.283.232-.17.057-.174.228-.025 1.21.207 1.349.12 1.672-.104.388zm-3.38-.59c.043-.11.133-.165.2-.123.172.106.156.156-.076.245-.134.052-.175.01-.124-.122zm6.568-1.106c-.555-.566-.949-1.03-.875-1.03.075 0 .156.047.182.104.025.057.272.273.549.48.525.392 1.47 1.494 1.27 1.482-.063-.002-.57-.47-1.126-1.036zm-.476.465c-.438-.237-.771-.457-.74-.489.056-.055 1.184.495 1.605.783.446.305-.11.116-.865-.294zm-5.33-.228c1.085-1.41 1.297-1.82.943-1.82-.082 0-.068-.115.035-.283.155-.254.115-.339-.379-.794-.304-.28-.553-.543-.553-.584 0-.042-.201-.291-.448-.554-.39-.415-.55-.686-.408-.686.178 0 2.584 1.288 2.584 1.383 0 .067-.358-.08-.795-.327-.972-.548-1.278-.67-1.278-.509 0 .068.164.253.364.41.2.158.28.287.177.287-.104 0-.034.106.154.237.746.517.816.642.79 1.405-.022.693-.069.78-.836 1.584-.605.632-.694.697-.35.25zm4.26-.766c0-.029.11-.138.242-.242.22-.172.224-.167.053.052-.18.23-.294.304-.294.19zm-1.934-.639c-.36-.36-.35-.749.026-1.1.376-.35.963-.363 1.265-.029.747.825-.503 1.918-1.291 1.13zm2.78-.32c.012-.235.03-.248.08-.058.034.134.116.21.18.17.066-.04.15-.022.188.04.038.06-.05.12-.198.131-.192.015-.262-.064-.25-.282zm-5.682-.085c-.794-.06-.922-.095-.547-.15.657-.098 1.791 0 1.791.155 0 .068-.047.113-.104.1-.057-.016-.57-.061-1.14-.104zm6.115-.105c.133-.034.35-.034.483 0 .133.035.025.063-.241.063s-.375-.028-.242-.063zm.932-.043c.114-.073.27-.134.346-.134.076 0 .045.06-.07.134-.113.074-.269.134-.345.134-.076 0-.045-.06.07-.134zm.942.044c.1-.04.219-.035.265.01.046.046-.036.079-.182.073-.16-.007-.193-.04-.083-.084zm-7.401-.277c.133-.035.35-.035.483 0s.025.063-.241.063-.375-.029-.242-.063zm4.911-.198c-.029-.084.2-.411.507-.725.891-.912 1.316-1.189.558-.363-.38.413-.746.793-.812.843-.067.051-.079.162-.027.246.053.085.035.154-.04.154-.074 0-.157-.07-.186-.154zm-.632-.501c-.252-.518-.117-.75.591-1.022.38-.145.816-.317.968-.381 1.14-.485 1.43-.544 1.145-.235-.098.106-.212.172-.253.148-.04-.025-.259.036-.483.134-.225.098-.69.292-1.031.43-.78.314-1.005.563-.819.91.076.142.106.257.068.257-.038 0-.122-.108-.186-.241zm-2.366-.875c.238-.15.54-.164.54-.023 0 .057-.166.113-.367.125-.263.015-.312-.015-.173-.101zm.89.02c-.043-.07-.017-.168.062-.216.077-.048.14.01.14.129 0 .243-.083.278-.201.087zm.625-1.046a32.01 32.01 0 0 0-.277-1.244l-.107-.414-.146.483c-.082.275-.147.364-.151.208-.008-.418.346-1.154.434-.899.193.56.535 2.355.48 2.514-.035.1-.14-.192-.233-.648zm-.965-.01c.008-.161.04-.194.084-.084.04.1.035.22-.01.265-.046.046-.079-.036-.073-.181zm-37.967.391c.093-1.932.315-3.35.936-5.976a38.845 38.845 0 0 1 13.388-21.273c1.595-1.289 4.211-3.05 5.807-3.908 4.953-2.662 10.706-4.343 15.856-4.633l1.831-.103v.694c0 .382-.126 2.123-.28 3.87-.487 5.51-.78 9.195-1.237 15.543-.373 5.177-.7 9.268-.767 9.61-.036.183-.44.504-1.132.898-.59.337-1.302.818-1.58 1.068l-.507.456-.876-.876c-1.799-1.8-4.547-4.318-4.761-4.364-.355-.077-1.349 1.147-2.41 2.966l-.976 1.675-.924-.466a21.745 21.745 0 0 0-1.054-.509c-.072-.025.141-.537.473-1.14.332-.603.676-1.234.764-1.401l.16-.305.703.474c.388.261.744.538.792.616.143.232.347.16.347-.123 0-.147-.306-.52-.694-.844l-.694-.581.368-.342c.288-.267.393-.301.485-.157a.79.79 0 0 1 .118.333c.002.082.15.287.329.455.284.267.372.285.69.14.201-.091.365-.24.365-.33 0-.218-1.342-1.45-1.579-1.45-.101 0-.358.233-.57.518l-.425.57c-.022.028-.139.012-.26-.034-.195-.074-.198-.119-.026-.365.344-.491 1.209-1.38 1.343-1.38.07 0 .332.224.581.498.249.274.627.623.84.775.372.266.398.267.66.03.209-.189.31-.208.435-.084.125.125.268.06.616-.277.426-.413.44-.456.228-.691-.29-.32-.397-.315-.897.041-.246.175-.38.372-.334.49.064.167.035.17-.18.02-.342-.24-.984-1.014-.984-1.185 0-.146 1.24-1.274 1.4-1.274.052 0 .425.451.83 1.002.993 1.35 3.264 4.212 4.384 5.527.856 1.004 1.175 1.24 1.285.95.025-.067.45-.367.944-.667l.898-.547.075-1.232c.041-.678.103-1.325.138-1.437.04-.13-.047-.22-.24-.25-.237-.036-.353-.217-.527-.813-.122-.421-.203-.78-.18-.795.023-.018.292-.087.596-.158l.552-.13.12-.894c.09-.67.06-1.28-.122-2.418-.133-.838-.292-1.657-.353-1.82-.097-.26-.052-.309.363-.386.354-.067.496-.177.56-.435.12-.477.034-.519-.729-.356-.365.078-.68.126-.7.106-.15-.15-.862-3.32-.767-3.416.114-.113 1.33-.378 2.108-.46.305-.032.355-.111.393-.621.037-.508.01-.575-.208-.514-.6.169-2.963.534-3.029.468-.064-.064-.45-1.547-.463-1.777-.002-.049.203-.128.457-.175l.462-.087-.124-.793c-.068-.435-.173-.842-.234-.903-.116-.116-1.358.146-1.458.309-.033.052.123.806.344 1.676.483 1.89.485 1.92.14 1.83-.148-.04-.794.096-1.435.3-1.14.363-1.166.38-1.147.797.02.397-.037.448-.81.754-1.585.627-4.076 2.03-4.076 2.296 0 .3 2.072 3.272 2.282 3.272.336 0 .249-.207-.682-1.622-.674-1.026-.848-1.387-.725-1.51.45-.448 4.701-2.422 4.834-2.244.1.134 1.2 3.134 1.2 3.272 0 .083-.14.195-.311.249-.91.284-3.091 1.434-4.196 2.212-.281.197-.326.157-1.122-1.008a39.929 39.929 0 0 1-1.561-2.527c-.403-.722-.908-1.572-1.124-1.89l-.39-.577.724-.401c1.278-.709 1.622-.93 1.623-1.041 0-.06-.186-.508-.414-.996-.228-.488-.415-.92-.415-.961 0-.092 2.315-1.19 3.225-1.53.57-.213.687-.221.792-.054.132.21-.185.541-.52.541-.099 0-.724.242-1.39.537-.664.295-1.292.561-1.393.591-.287.085 1.257 2.949 1.589 2.949.186 0 .265-.122.297-.455.04-.405.128-.492.8-.79.669-.295.745-.37.671-.662-.072-.288-.007-.357.52-.558.33-.127.676-.23.768-.23.25 0 .205-.493-.13-1.414-.242-.662-.265-.843-.117-.934.187-.116 3.945-1.032 4.872-1.188.595-.1.58-.02.313-1.645-.257-1.562-.257-1.728-.005-1.728.228 0 .26.12.496 1.797.09.646.183 1.207.205 1.248.023.04.292.05.6.02.505-.048.567-.096.632-.488.07-.41.446-5.423.522-6.93l.035-.69-.899.046c-1.152.059-2.765.255-2.858.348-.04.04 0 .495.085 1.013.23 1.383.838 5.74.838 6.015 0 .262-.086.29-2.743.863-1.983.428-4.836 1.366-6.353 2.088-.583.277-1.206.56-1.386.63-.236.09-.306.201-.254.4.058.223-.112.384-.898.852l-.97.576-.258-.336c-.336-.437-.331-.47.108-.815.465-.366 3.957-2.06 5.131-2.49.723-.264.86-.364.795-.575l-.162-.52c-.11-.35.071-.437 2.307-1.111 2.068-.624 2.376-.668 2.31-.33-.032.164-.455.337-1.495.612-2.491.658-2.767.793-2.493 1.228.109.171.222.177.723.035a119.4 119.4 0 0 1 2.668-.673l2.226-.541c.108-.026.056-.691-.175-2.217-.181-1.198-.351-2.2-.377-2.227-.068-.067-1.165.175-2.747.608l-1.349.369.087.46c.074.396.048.459-.191.459-.18 0-.307-.12-.363-.345-.048-.19-.153-.346-.233-.346-.56 0-6.383 2.619-7.23 3.252-.226.169-.24.244-.097.511.093.172.29.546.44.831.148.285.35.519.449.519.098 0 .788-.311 1.532-.691.744-.38 1.409-.691 1.478-.691.068 0 .12.109.115.242-.007.166-.44.45-1.385.907-.758.365-1.907.981-2.554 1.368-.822.491-1.22.66-1.322.558-.101-.101.109-.324.697-.74.464-.326.843-.646.843-.711 0-.167-.411-.948-.683-1.297-.21-.268-.262-.277-.597-.102-.404.211-.391.39.074 1.061.262.378.262.393.012.584a6.38 6.38 0 0 1-.768.454l-.51.259.32.47c.175.259 1.292 1.807 2.481 3.441 1.874 2.575 2.133 2.992 1.942 3.132-.192.14-.065.37.98 1.776 1.702 2.288 1.677 2.221 1.057 2.745-1.128.954-1.337 1.165-2.225 2.238l-.924 1.116-1.098-.879c-.604-.483-1.41-1.116-1.79-1.407-.38-.29-1.033-.836-1.45-1.213-.418-.376-1.816-1.589-3.108-2.695-3.157-2.7-5.044-4.39-5.04-4.508.001-.054.11-.235.241-.402l.239-.304.617.546c.339.3.655.546.702.546.047 0 .495-.457.997-1.015l.912-1.015-.858-.85c-.472-.468-.896-.85-.943-.85-.124 0-2.88 3.273-2.87 3.409.004.062.474.456 1.045.874s1.142.875 1.27 1.015c.219.241.211.272-.129.553a3.465 3.465 0 0 0-.599.672c-.232.365-.248.369-.606.145a22.21 22.21 0 0 1-1.228-.893c-.473-.365-.89-.664-.926-.664-.037 0-.377.481-.755 1.07l-.69 1.068.499.417c.52.435 1.006.748 1.173.757.054.005.352-.368.662-.824.599-.883.698-.947.964-.625.138.166.092.302-.254.738-.233.294-.52.614-.636.711-.117.097-.212.253-.212.345 0 .174.913.734 1.01.62.03-.034.497-.726 1.038-1.537.54-.811 1.048-1.515 1.127-1.563.17-.105.51.152 2.01 1.518.616.56 1.472 1.315 1.905 1.679.432.363.781.694.776.734-.005.04-.44.696-.965 1.456-.947 1.369-1.927 3.142-1.927 3.487 0 .184 5.115 2.8 5.475 2.8.348 0 .343.326-.022 1.246-.281.709-1.031 3.47-1.031 3.796 0 .039.203.07.453.07h.452l.327-1.393c.18-.767.406-1.424.501-1.46.095-.037.493.028.884.144l.71.21.133-.348c.223-.588.16-.87-.213-.965-.37-.093-.482-.47-.14-.47.168 0 2.068.771 2.268.92.03.023-.076.494-.236 1.046a19.23 19.23 0 0 0-.381 1.522c-.084.479-.066.518.237.518.295 0 .357-.117.638-1.203.171-.662.367-1.26.435-1.327.072-.073.741.127 1.622.486 1.594.649 1.557.606 1.372 1.536-.114.574.354.436.523-.155.072-.25.199-.434.282-.408 1.911.578 1.887.565 1.838 1.002l-.047.415-1.442.095c-.793.053-3.183.226-5.31.385-2.129.16-4.803.348-5.942.419-1.14.07-2.384.162-2.764.202-.38.04-2.028.165-3.662.278-1.634.112-4.548.33-6.476.483-1.929.154-3.57.28-3.648.28-.095 0-.114-.593-.058-1.762zm3.352-1.347c.167-1.064.349-2.12.404-2.349.142-.583 1.159-4.146 1.252-4.39.057-.148-.21-.318-1.001-.635-.593-.24-1.12-.434-1.17-.434-.266.002-1.382 4.35-1.686 6.565-.306 2.227-.392 3.09-.318 3.21.036.058.549.075 1.14.037l1.076-.07zm1.955.967a55.413 55.413 0 0 1 1.305-5.094c.3-.978.525-1.797.5-1.822-.081-.082-1.373-.614-1.49-.614-.245 0-1.4 4.044-1.716 6.01-.049.304-.123.724-.164.933-.062.313-.027.38.2.38.667 0 .922.346.508.69-.285.236-.118.44.32.389.325-.038.383-.131.537-.872zm3.045.601c2.048-.156 2.107-.17 2.107-.473 0-.263-.11-.336-.698-.462-.91-.195-1.106-.188-1.29.043-.13.163-.329.15-1.304-.082-.632-.151-1.176-.248-1.208-.216-.032.032-.098.349-.147.704-.104.761-.377.71 2.54.486zm4.955-1.153c.284-1.354.274-1.392-.43-1.59-.724-.202-.756-.343-.352-1.515.276-.8.262-1.008-.062-.884-.347.134-1.081 2.506-1.362 4.403l-.082.553 1.057-.07 1.057-.069zm1.896-1.147c.216-1.01.358-1.928.316-2.038-.13-.34-.592-.231-.758.18-.195.486-.847 3.202-.847 3.532 0 .199.091.241.447.207l.448-.044zm1.827 1.618c.156-.252-.123-.397-.842-.435-.619-.033-.69-.005-.73.275-.04.29.007.31.718.31.418 0 .803-.067.854-.15zm3.023-.205c.119-.12.217-.404.217-.631 0-.352.047-.407.31-.367.322.049.327.07.169.7-.085.337-.057.377.257.377.43 0 .486-.084.595-.876l.085-.622-.998-.297c-.549-.163-1.027-.268-1.062-.233-.108.108-.458 1.522-.46 1.855-.001.238.077.311.334.311a.896.896 0 0 0 .553-.217zm-9.052-1.683c.176-.74.443-1.64.594-1.996.15-.357.25-.72.222-.805-.05-.15-1.38-.674-1.733-.683-.165-.005-1.421 3.68-1.421 4.166 0 .226.207.316 1.312.57.682.157.695.14 1.026-1.252zm-.584-1.798c-.347-.078-.235-.506.147-.56.233-.034.31.025.31.233 0 .325-.113.405-.457.328zm7.156 1.822c.128-.576.193-1.088.143-1.138-.133-.133-1.212-.435-1.319-.37-.175.11-.716 2.167-.599 2.28.136.128 1.317.39 1.452.322.05-.025.195-.518.323-1.094zm-9.626.252c.026-.181-.042-.345-.162-.39-.183-.071-.183-.159 0-.777.235-.79.172-.915-.516-1.026l-.472-.076-.31 1.091c-.171.6-.311 1.161-.311 1.246 0 .19.438.287 1.174.262.462-.017.56-.07.597-.33zm6.1-1.036c-.003-.22-.151-.38-.507-.547-.474-.222-.513-.222-.682 0-.275.362-.224.546.192.698.674.246 1.002.196.997-.15zm.281-1.064c0-.347-.928-.57-1.115-.268-.144.234-.025.358.424.438.637.114.691.1.691-.17zm3.426-.042c.08-.095.185-.336.235-.535.08-.317.036-.382-.356-.518-.247-.086-.461-.14-.477-.121-.016.02-.129.23-.25.47-.23.452-.17.596.324.78.32.118.37.11.524-.076zm-1.229-.676c.218-.624.203-.663-.327-.885-.645-.27-.868-.252-.972.077-.048.152-.208.276-.355.276-.327 0-.328.04.025-.69.28-.579.282-.612.043-.786-.137-.1-.339-.182-.448-.182-.11 0-.403-.126-.652-.28-.406-.251-.473-.258-.664-.068-.116.117-.29.43-.386.694-.096.266-.215.483-.264.483-.207 0-3.7-1.323-3.84-1.455-.088-.083.288-.975.544-1.292.389-.48.603-.222.267.321-.154.25-.28.515-.28.589 0 .134.587.455.832.455.153 0 .687-1.007.687-1.294 0-.182-1.773-1.193-2.091-1.193-.074 0-.348.466-.607 1.036-.273.599-.558 1.036-.674 1.036-.154 0-.175-.089-.09-.38.22-.753 1.039-2.245 1.233-2.245.236 0 2.74 1.202 2.84 1.363.038.061-.115.5-.34.976-.225.475-.409.888-.409.917 0 .09.806.475.996.475.1 0 .448-.527.775-1.172.327-.644.653-1.207.724-1.251.311-.193.059-.448-1.01-1.024-1.595-.86-1.586-.846-1.129-1.633.21-.36.743-1.2 1.187-1.868.443-.668.806-1.234.806-1.26 0-.162-1.137-.797-1.24-.693-.069.07-.5.655-.96 1.3-1.261 1.776-1.154 1.704-1.764 1.19-.933-.785-3.023-2.294-3.176-2.294-.309 0-2.927 5.637-2.751 5.922.041.067.62.353 1.287.636.667.282 1.585.688 2.04.9 3.53 1.647 5.913 2.625 8.292 3.405 1.367.448 1.664.43 1.851-.106zm-3.254-1.052c-.108-.07-.008-.28.309-.655.408-.482.468-.514.47-.248.002.403-.28 1.009-.47 1.006a.712.712 0 0 1-.31-.103zm-4.723.693c.452-1.312.456-1.248-.112-1.485-.285-.12-.598-.186-.694-.15-.196.075-.517.775-.664 1.444-.088.399-.057.453.364.636.734.318.86.267 1.106-.446zm5.218-5.13c.12-.223.03-.333-.622-.765l-.76-.506.242-.41c.134-.227.51-.768.835-1.202.325-.435.59-.834.59-.887 0-.201-.457-.543-.672-.503-.299.056-2.082 2.718-2.087 3.116-.002.17.051.31.119.31s.548.25 1.069.553c.52.304.99.553 1.046.553.056 0 .164-.117.24-.26zm9.954-2.11c.002-.049-.085-.123-.194-.164-.119-.046-.46.195-.86.607-.364.375-.724.682-.799.682-.075 0-.402-.26-.728-.58-.571-.561-.598-.572-.795-.31-.281.371-.284.365.375.977 1.227 1.142 1.123 1.145 2.12-.062.482-.583.879-1.1.88-1.15zm-8.898.404.645-.997-.46-.384c-.254-.212-.508-.385-.566-.385-.057 0-.425.475-.817 1.056-.552.818-.67 1.08-.522 1.165.104.06.314.205.466.321.152.117.351.215.442.217.092.002.457-.444.812-.993zm7.717-.265.65-.572-.45-.465c-.248-.255-.52-.464-.603-.464-.084 0-.392.245-.684.545l-.532.545.4.481c.22.265.438.486.485.492.046.005.376-.248.734-.562zm-1.682-.9c.513-.506.933-.992.933-1.08 0-.088-.176-.328-.39-.533l-.39-.373-.992 1.023c-.545.563-.992 1.073-.992 1.133 0 .168.582.749.75.749.081 0 .568-.414 1.08-.92zm3.678.179.306-.326-.8-.966c-.44-.531-.992-1.206-1.226-1.5l-.426-.535-.43.341c-.237.188-.434.405-.438.484-.009.16 2.452 2.828 2.608 2.828.055 0 .237-.147.406-.326zm-4.988-1.351c.511-.543.93-1.062.93-1.155 0-.092-.393-.589-.874-1.102l-.873-.934-1.025 1.087c-.563.597-1.025 1.147-1.026 1.22-.002.16 1.669 1.87 1.827 1.87.06 0 .529-.444 1.04-.986zm8.547-.523c.314-.142.612-.326.662-.407.153-.249-.574-1.53-.736-1.297-.045.064-.377.288-.738.496l-.657.38.311.545c.171.3.374.545.45.544.076-.001.395-.119.708-.26zm-9.897-2.637c1.102-1.062 2.066-1.912 2.142-1.888.21.066 1.74 1.915 1.876 2.268.122.316.46.417.605.182.044-.07-.375-.739-.932-1.485a126.685 126.685 0 0 1-1.667-2.29c-.361-.512-.69-.932-.732-.932-.042 0-.524.4-1.071.89l-.995.891-.534-.55-.535-.55-.537.523-.538.523-.725-.803-.725-.803-.752.859c-.414.472-.83.938-.925 1.035-.095.097-.173.23-.173.297 0 .067.632.708 1.404 1.426 2.202 2.048 2.525 2.33 2.672 2.335.076.002 1.04-.865 2.142-1.927zm11.932 1.604c.65-.287.74-.374.685-.659a1.89 1.89 0 0 0-.303-.647l-.24-.319-.506.298c-.617.364-.998.225-.423-.154.216-.143.498-.26.626-.26.369-.001.422-.235.173-.76-.222-.466-.635-.647-.814-.357-.044.07-.39.23-.769.357-.379.126-.689.293-.689.372 0 .204 1.292 2.451 1.413 2.456.055.002.436-.145.847-.327zm-8.751-1.739c-1.204-1.358-1.116-1.322-1.725-.699l-.529.541.933 1.042.933 1.042.607-.497.606-.497zm6.124.904c.326-.198.376-.3.3-.607-.052-.203-.121-.396-.156-.43-.079-.08-1.85.85-1.85.97 0 .05.129.253.286.452.282.36.287.36.656.107.204-.14.548-.361.764-.492zm-17.186-.826c-.684-.66-2.283-1.853-2.323-1.734-.026.078.1.258.28.4.18.141.668.542 1.084.89.416.349.848.635.959.637.178.002.178-.02 0-.193zm25.425-.864c.036-.034.09-.493.12-1.02l.054-.96h-.37c-.443 0-1.596.278-1.596.384 0 .042.07.475.154.962l.154.886.71-.096c.39-.052.738-.122.774-.156zm-10.725-.605c.557-.328.631-.638.263-1.087l-.242-.294-.691.364c-.938.494-.959.523-.742 1.021.158.364.248.423.548.364.198-.038.587-.204.864-.368zm3.925-1.405c.38-.315-.068-.42-.781-.183-.754.251-.911.39-.792.7.064.166.183.152.733-.084.362-.155.74-.35.84-.433zm-11.85-1.626c.799-.717 1.47-1.344 1.491-1.394.03-.07-.604-.915-1.019-1.357-.064-.07-1.686 1.327-2.678 2.305l-.757.745.667.63c.366.346.706.572.756.502.05-.07.743-.714 1.54-1.43zm1.427.624.805-.755-.252-.348c-.139-.192-.322-.334-.407-.316-.084.02-.531.367-.992.776-.816.724-.833.753-.625 1.071.118.18.316.327.44.327.125 0 .589-.34 1.031-.755zm11.908-.154c.608-.204 1.122-.385 1.143-.402.02-.017-.135-.666-.346-1.443l-.383-1.412-.41.082c-.623.125-.683.262-.436.989.371 1.088.323 1.244-.465 1.506-.805.267-.829.293-.73.807.053.282.136.37.298.317l1.329-.444zm4.304-.701 1.281-.229.068-.566c.123-1.021.219-2.938.15-3.006-.082-.083-2.646.48-2.776.611-.053.052-.02.572.075 1.154.186 1.15.13 1.29-.511 1.295-.346.002-.373.098-.176.615.159.419.226.423 1.89.126zm-19.959-.946a29.671 29.671 0 0 1 1.735-1.52c.392-.304.715-.6.718-.658.01-.188-1.12-1.76-1.265-1.76-.185 0-1.032.657-2.391 1.856-1.467 1.294-1.45 1.278-1.45 1.464 0 .24 1.285 1.648 1.471 1.614.088-.017.62-.464 1.182-.996zm3.776-2.644c-1.427-1.914-1.66-2.183-1.704-1.959-.061.32 1.9 2.938 2.072 2.766.086-.087-.044-.372-.368-.807zm1.992-1.984a52.117 52.117 0 0 1 2.245-1.19c.821-.41 1.493-.768 1.493-.792 0-.058-.71-1.809-.751-1.853-.096-.103-4.333 2.189-5.363 2.9l-.379.26.561.827.56.826.44-.269c.243-.148.78-.467 1.194-.71zm5.534-2.626c.553-.228 1.078-.415 1.167-.415.09 0 .275-.083.414-.184.214-.157.23-.255.108-.656-.08-.26-.182-.643-.228-.852-.112-.506-.333-.491-2.024.134-1.223.452-1.383.549-1.317.795l.25.936c.208.787.28.798 1.63.242zm5.596-1.653c1.218-.255 1.15-.156.973-1.422-.086-.616-.117-.656-.505-.656-.81 0-4.268.879-4.268 1.084 0 .058.128.484.284.946l.284.84 1.063-.28a53.322 53.322 0 0 1 2.17-.512zm42.835 33.892c-1.7-.148-7.459-.608-9.12-.73-1.064-.076-3.675-.267-5.803-.422a2198.34 2198.34 0 0 0-7.807-.552c-5.154-.353-4.882-.3-5.2-1.006a13.243 13.243 0 0 0-.779-1.381c-.5-.774-.553-1.066-.195-1.066.185 0 1.19 1.446 1.563 2.246.227.49.466.684.466.38 0-.083.576-.138 1.453-.138h1.453l-.037-.563c-.04-.614-.041-.613 1.87-1.295l.524-.187.082.413c.045.226.167.444.27.484.104.04.19.267.19.506.005.538.172.822.451.759.187-.042.174-.2-.1-1.257-.174-.665-.264-1.21-.202-1.21.1 0 .495 1.176.754 2.246.087.36.504.534.662.276.035-.057-.088-.69-.273-1.405-.35-1.352-.347-1.669.02-1.669.119 0 .523-.155.898-.345.375-.19.738-.346.808-.346.114 0 .435 1.015.435 1.377 0 .083-.155.21-.345.281-.467.178-.454.553.02.553.53 0 1.432-.296 1.434-.47.001-.084-.135-.572-.302-1.086-.203-.625-.258-.98-.166-1.073.218-.218 9.453-3.768 9.55-3.671.032.032-.226.185-.573.339-.38.168-.61.351-.575.46l.286.907c.126.399.27.725.322.725.392.002 2.096-.628 2.096-.775 0-.383-.582-1.715-.804-1.839-.192-.107-.124-.176.39-.396.341-.147.76-.31.932-.365.322-.102.445-.632.148-.632-.09 0-1.815.659-3.832 1.464-3.966 1.584-8.045 3.13-8.091 3.066a157.87 157.87 0 0 1-.89-1.692c-.798-1.533-.843-1.666-.618-1.831.33-.242.432-.225.605.098.081.152.27.277.42.277.324 0 .342-.13.068-.492-.111-.148-.205-.314-.207-.369-.005-.101 2.516-1.872 3.397-2.386.485-.284.571-.654.17-.732-.123-.025-.775.343-1.449.816-.673.472-1.628 1.137-2.122 1.478-.494.342-.997.705-1.117.807-.12.103-.322.187-.449.187-.495 0-.182-.438.944-1.317.646-.504 1.174-.967 1.174-1.029 0-.062-.097-.15-.217-.195-.14-.054-.623.23-1.347.791-.622.481-1.2.915-1.284.963-.086.05-.863-.62-1.762-1.518l-1.608-1.608 2.02-3.053c1.11-1.678 2.699-4.064 3.529-5.3.83-1.238 1.543-2.336 1.583-2.441.044-.113-.044-.228-.213-.282-.157-.05-.285-.133-.283-.185.002-.052.468-.744 1.036-1.538.95-1.327 1.2-1.81.93-1.8-.057.002-.322.327-.588.723a45.749 45.749 0 0 1-1.145 1.6c-.637.847-.654.895-.446 1.212.337.515-.062.422-.608-.142l-.458-.472.362-.474c.454-.596.45-.676-.057-.931a52.235 52.235 0 0 1-1.759-.995c-.74-.433-1.44-.82-1.554-.86-.15-.053-.319.177-.608.824-.22.494-.375.913-.345.93.03.02.34.131.689.25.943.32 3.027 1.669 3.028 1.958 0 .334-.072.313-.953-.275a20.643 20.643 0 0 0-1.396-.85 9.624 9.624 0 0 1-1.05-.657c-.235-.179-.496-.325-.581-.325-.134 0-.856 1.073-.856 1.273 0 .04.687.47 1.527.955 2.867 1.654 3.308 1.967 3.09 2.19-.11.11-.487-.069-1.382-.659a35.155 35.155 0 0 0-2.234-1.347c-.87-.465-1.026-.51-1.185-.334-.224.248-1.007 1.99-1.14 2.534-.18.736.259.326.84-.787.304-.581.598-1.058.653-1.06.055 0 .72.368 1.476.82.756.451 1.628.95 1.937 1.108.31.158.563.318.563.355 0 .228-2.542 4.072-2.693 4.072-.101 0-.616-.249-1.143-.553-1.06-.611-1.138-.636-1.138-.365 0 .103.363.412.808.687 1.256.775 1.247.684.216 2.317-.5.79-.96 1.49-1.021 1.554-.062.064-.446-.095-.853-.355a28.98 28.98 0 0 0-1.741-.998c-.551-.289-1.002-.586-1.002-.66 0-.152.215-.65.973-2.25a67.36 67.36 0 0 0 1.785-4.144c.46-1.161.49-1.236 2.484-6.09.689-1.677 1.252-3.123 1.252-3.212 0-.09-.113-.163-.251-.163-.253 0-.45.412-1.981 4.143-.677 1.65-.774 1.756-1.336 1.465-.234-.12-.584-.22-.778-.22-.594 0-.404.385.352.71.666.286.699.325.62.72-.078.39-1.782 4.723-2.25 5.721-.235.502-.421.545-1.015.238-.484-.25-.505-.438-.117-1.095l.29-.492-.464-.195c-.256-.107-.884-.306-1.396-.442-.568-.152-.932-.321-.932-.435 0-.142.144-.165.603-.097.55.083.61.063.689-.233.047-.178.088-.448.09-.6.007-.504.22-.697.578-.523.176.085.647.265 1.046.4.399.136.725.29.725.343 0 .053-.194.554-.43 1.113-.55 1.293-.667 1.96-.335 1.893.245-.05 1.42-2.548 1.489-3.166.032-.285-.075-.366-.857-.648-.491-.177-.91-.34-.932-.362-.023-.023.11-.482.295-1.022.259-.762.296-1.014.165-1.123-.337-.28-3.356-1.12-4.026-1.12-.276 0-.343.07-.343.356 0 .282.052.338.257.273.472-.15.71.056.71.615 0 .593.05.626 1.153.764.747.093.782.115.782.496 0 .453-.188.492-1.231.251-.345-.079-.662-.088-.73-.02-.114.115-.558 3.084-.473 3.17.022.022.511.163 1.086.314 1.383.362 1.762.514 1.762.705 0 .152-.292.127-1.045-.089-.259-.074-.307.02-.518 1.002a24.39 24.39 0 0 0-.233 1.16c0 .043.45.223 1.002.401.55.179 1.091.405 1.2.504.382.344-.004.375-.937.074-1.12-.36-1.403-.376-1.403-.08 0 .162-.085.201-.314.144a42.828 42.828 0 0 0-1.035-.234c-.614-.131-.703-.19-.597-.388.07-.128.224-.947.344-1.82.362-2.615.773-5.978.773-6.319 0-.299-.336-.573-.501-.408-.094.093-.29 1.628-.464 3.621a92.55 92.55 0 0 1-.364 3.282l-.232 1.762h-.394c-.323 0-.394.059-.394.33 0 .288.083.341.656.424.837.12 3.09.711 3.726.976.54.226.54.147-.008 1.586-.679 1.782-1.192 2.795-1.38 2.723-.452-.174-2.47-.788-2.587-.788-.072 0-.13.111-.13.248 0 .19.238.32 1.001.545.551.163 1.119.383 1.262.489.249.183.25.223.035.871a6.711 6.711 0 0 1-.497 1.123c-.254.416-.298.434-.701.294-.815-.284-.943.45-.133.756.47.177.48.204.21.562-.114.15-.288.224-.411.177-.148-.057-.214 0-.214.188 0 .24.894.957 1.207.969.14.005.971.638 1.698 1.295.451.407.541.556.394.649-.275.174-.258.181-1.16-.501a12.148 12.148 0 0 0-1.724-1.055c-.494-.237-.921-.45-.95-.474-.078-.067-.244-1.87-.704-7.656-.437-5.493-.784-9.47-1.255-14.37-.27-2.81-.679-7.51-.682-7.842-.002-.244 2.062-.226 4.052.035 11.114 1.456 20.745 7.454 26.994 16.81 1.973 2.954 3.467 6.108 4.8 10.138.835 2.518 1.598 6.954 1.598 9.28v1.148l-.587-.022a29.264 29.264 0 0 1-1.14-.071zm.716-2.566c-.14-2.52-.901-6.224-1.756-8.542-.23-.623-.447-1.181-.483-1.24-.037-.058-.61.13-1.275.417-.665.287-1.324.561-1.465.61-.18.061-.226.158-.154.328.413.971 1.465 3.855 1.596 4.373.174.691.307.75 1.084.479.334-.116.486-.115.606.007.233.233.082.298-1.936.835-.973.259-1.79.485-1.815.503-.025.017.062.808.194 1.757l.24 1.725 1.533.131c.843.072 2.025.14 2.625.152l1.092.02zm-5.621.957c0-.396-.447-2.794-.54-2.892-.08-.087-1.5.243-1.648.384-.077.072.283 2.188.416 2.45.097.189.302.241.948.241.591 0 .824-.051.824-.183zm-2.43-1.08c-.204-1.276-.312-1.458-.733-1.232-.346.185-.354.307-.091 1.316.252.97.299 1.041.687 1.041h.318zm-1.686.911c.074-.074-.694-3.942-.806-4.06-.09-.095-2.115.416-2.202.556-.044.07-.038.258.012.418.092.288.401.305 1.042.057.17-.066.268.096.45.748.126.458.23.86.23.893 0 .081-.723.291-1.692.49-.778.161-1.013.407-.622.65.275.173 3.445.391 3.588.248zm-4.175-.373c0-.447-1.153-4.805-1.34-5.066-.088-.123-1.147.286-1.147.443 0 .092.124.602.276 1.134.358 1.252.353 1.304-.14 1.403-.23.046-.44.122-.469.17-.028.046.023.489.113.983l.164.898.546.084c1.03.159 1.997.135 1.997-.05zm-3.014-.45c-.125-.791-.331-1.312-.519-1.312-.296 0-.38.326-.272 1.046.087.581.122.625.464.586.282-.033.36-.109.327-.32zm-1.668-.3c.264-.052.399-.164.399-.33 0-.376-.191-.427-.889-.241-.527.141-.631.224-.631.5 0 .29.047.32.361.242.199-.05.541-.127.76-.17zm-3.79-.813c.026-.077-.043-.263-.153-.412-.185-.248-.216-.252-.382-.044-.15.188-1.045.575-1.38.597-.184.012-.285.206-.208.405.066.174.222.159 1.077-.1.55-.168 1.02-.368 1.046-.446zm10.166.482c.492-.132.53-.177.49-.584-.05-.513-.448-.684-.564-.242-.108.414-.494.35-.592-.097-.206-.943-.359-1.164-.737-1.07-.198.05-.385.117-.417.149-.032.032.059.53.202 1.105.293 1.173.187 1.125 1.617.74zm3.557-1.096c.142-.076.993-.326 1.891-.556 2.25-.576 2.945-.818 2.945-1.025 0-.333-.861-2.908-1.26-3.767-.219-.472-.398-.92-.398-.994 0-.264-.27-.296-.764-.09-.552.23-.551.187-.048 1.527.337.898.328 1.014-.086 1.118-.19.047-.345.096-.345.107 0 .01.124.455.276.986.152.532.276.977.276.99 0 .02-1.24.424-2.032.66-.278.084-.33.006-.601-.917-.164-.555-.451-1.486-.64-2.07l-.341-1.059-.508.178c-.59.208-.591.111.041 2.145.249.8.529 1.781.623 2.18.18.765.396.896.972.587zm-10.242-.611c.223-.138.19-.627-.047-.718-.291-.112-1.18.212-1.18.43 0 .473.15.591.614.487.252-.057.528-.147.613-.2zm2.64.163c-.008-.483-.54-1.836-.742-1.876-.288-.058-.29.325-.008 1.302.166.57.28.746.484.746.146 0 .265-.078.264-.172zm2.965-.852.466-.195-.339-.933c-.44-1.214-.4-1.171-.917-.998-.767.259-.782.302-.462 1.355.32 1.055.422 1.118 1.252.771zm1.94-.524c.46-.124.624-.236.624-.428 0-.508-.584-2.187-.741-2.13l-.882.312c-.827.292-.848.362-.438 1.443.428 1.125.364 1.09 1.437.803zm4.097.005c.294-.089.534-.216.534-.285 0-.277-.317-1.36-.416-1.422-.09-.055-.493.057-1.473.41-.12.043-.105.241.06.758.247.77.362.818 1.295.539zm-8.965-2.217c.209-.075.38-.21.38-.297s-.31-.68-.69-1.318l-.69-1.16.301-.26c.264-.23.276-.286.1-.463-.178-.178-.266-.157-.717.164-.557.396-.631.606-.308.875.334.277.24.712-.242 1.118-.338.285-.41.419-.292.54.112.115.184.118.25.01.166-.268.32-.161.698.482.277.474.427.609.6.539.126-.052.4-.156.61-.231zm1.469-.54c.492-.172.493-.428.005-1.12-.146-.205-.265-.435-.265-.51 0-.254-.292-.316-.699-.148-.245.102-.406.271-.406.428 0 .273.337.358.484.121.047-.076.19-.136.319-.133.178.002.143.08-.147.316-.439.36-.46.472-.165.892.248.354.283.36.875.154zm1.993-.743c.535-.223.594-.335.38-.73-.491-.908-1.991-3.362-2.093-3.425-.068-.042-.327.113-.574.345-.248.232-.497.422-.554.422-.265.002-.044.645.59 1.719.382.645.733 1.285.782 1.42.232.652.426.685 1.47.25zm2.38-.952 2.646-1.12c1.233-.52 1.529-.698 1.465-.88-.11-.315-2.28-3.754-3.674-5.822-.214-.316-.37-.626-.346-.69.023-.062.65-.653 1.39-1.312.741-.66 1.347-1.282 1.347-1.384 0-.203-.729-1.144-1.714-2.212l-.636-.691-1.358 1.426-1.357 1.426-.957-.986c-1.16-1.197-1.293-1.279-1.645-1.021-.258.188-.21.255.969 1.356.982.916 1.205 1.193 1.073 1.33-.133.139-.404-.057-1.32-.952l-1.155-1.126-.44.454c-.243.25-.441.513-.441.583 0 .071.48.611 1.066 1.201.863.869 1.032 1.105.888 1.247-.143.141-.367-.03-1.17-.898-.545-.59-1.054-1.07-1.13-1.067-.076.002-.243.15-.37.327-.23.317-.22.335.792 1.343.998.993 1.228 1.367.841 1.367-.193 0-2.437-2.256-2.437-2.45 0-.058.544-.759 1.209-1.557.665-.798 1.345-1.625 1.511-1.839l.303-.387-.527-.476c-.29-.262-.585-.476-.656-.476-.158 0-.35.258-1.906 2.557-.669.987-1.33 1.941-1.468 2.12l-.253.323 1.584 1.523c.872.837 1.585 1.568 1.585 1.623 0 .117-1.06 1.25-1.17 1.25-.21 0-.03-.478.271-.715.19-.15.346-.33.346-.4s-.415-.54-.923-1.046l-.922-.918-.425.473c-.233.26-.645.745-.915 1.077-.488.602-.492.603-.849.37l-.358-.235-.637.958c-.35.526-.636 1.013-.636 1.082 0 .068.184.34.409.603.225.263.411.587.414.72.002.133.052.242.11.242.119 0 2.012-1.89 2.663-2.659l.438-.517.388.31c.399.319.607.743.421.858-.058.036-.25-.09-.427-.278l-.322-.342-.386.37-.386.37.515.454c.284.25.587.458.675.461.154.007 3.468-3.238 6.538-6.398l1.448-1.49.38.458c.208.252.38.494.383.537.002.044-.771.759-1.718 1.59-.948.83-1.725 1.605-1.728 1.721-.002.117.18.428.404.691.225.264.412.552.415.64.005.09-.255.385-.573.658l-.578.495.302.408c.35.473.368.558.123.558-.228 0-1.203-1.27-1.203-1.567 0-.19.054-.2.352-.063.309.14.395.116.714-.203l.362-.362-.334-.49c-.184-.27-.383-.492-.442-.493-.116 0-1.94 1.508-2.003 1.657-.02.05.13.334.335.633.206.298.62.915.923 1.371.302.456.566.85.587.876.02.026.4-.22.842-.547.443-.327.826-.607.852-.623.025-.017-.061-.255-.192-.531-.267-.561-.344-.444.823-1.247.712-.49.732-.65.173-1.382-.278-.364-.505-.702-.505-.75 0-.05.668-.643 1.485-1.32.817-.677 1.595-1.321 1.728-1.433.212-.178.241-.177.241.008 0 .116-.648.763-1.441 1.438-.793.676-1.446 1.299-1.451 1.385-.005.086.244.536.553 1 .31.463.523.906.474.985-.049.078.216.561.588 1.073 1.621 2.232 1.711 2.382 1.482 2.47-.12.046-.234.06-.255.032-.02-.028-.5-.75-1.065-1.603-.565-.854-1.076-1.553-1.136-1.555-.189-.005-1.33.888-1.336 1.045-.005.082.43.837.962 1.678.532.84.967 1.585.967 1.654 0 .069-.295.276-.656.46l-.726.372c-.038.02-.213-.187-.39-.459-.308-.476-.33-.486-.586-.253-.147.133-.267.308-.267.39 0 .264.755 1.604.903 1.605.079 0 .639-.21 1.244-.467zm-21.648-.12c-.018-.096.074-.416.203-.713s.218-.552.198-.568a4.8 4.8 0 0 0-.35-.192c-.386-.202-.519.04-.405.739.061.38.033.457-.156.428-.232-.037-.25-.154-.148-1.038.042-.367 0-.49-.177-.526-.272-.055-.454.248-.585.974-.093.51-.082.526.5.785.707.314.962.344.92.11zm16.098-.253c.2-.157.364-.375.364-.483 0-.256-.031-.251-.614.092-.49.29-.573.412-.4.586.146.145.261.111.65-.195zm-.19-1.06c-.002-.057-.057-.19-.124-.294-.153-.243-.441-.076-.337.195.079.206.464.289.46.099zm11.72-.193c.356-.162.912-.409 1.235-.548.323-.138.588-.316.588-.395 0-.203-.056-.188-.937.253-.435.217-1.024.471-1.309.563-.285.093-.518.226-.518.296 0 .196.233.154.94-.169zm-7.783-.253c.173-.28-.636-1.524-.99-1.524-.373 0-.338.41.089 1.03.417.606.727.776.9.494zm8.39-1.092.926-.43-.217-.52c-.958-2.294-3.668-6.805-4.089-6.805-.188 0-1.415 1.138-1.415 1.313 0 .076.637 1.048 1.416 2.16.78 1.112 1.417 2.09 1.417 2.176 0 .499-.537-.09-1.81-1.987-.79-1.178-1.472-2.142-1.515-2.142-.043 0-.251.181-.463.402l-.385.402.541.738c.631.86 2.383 3.533 3.131 4.778l.519.862.509-.258c.28-.142.926-.452 1.435-.689zm-15.848-.213.966-.888-.478-.496c-.263-.273-.522-.48-.575-.46-.17.064-1.918 1.759-1.918 1.86 0 .157.73.87.89.87.082 0 .583-.398 1.115-.886zm-10.906-.59c.075-.383.061-.392-.983-.64-.582-.138-1.078-.232-1.102-.207-.025.025-.086.273-.139.553-.094.508-.093.51.506.664.33.085.756.203.945.262.413.128.663-.077.773-.632zm14.1-.206c.484-.393.879-.781.876-.863-.002-.082-.153-.33-.335-.553l-.33-.404-.978.8c-.537.44-.977.846-.977.903 0 .178.564.832.717.832.08 0 .542-.321 1.027-.715zm-16.663-.78c.093-.507.208-.991.255-1.075.132-.234 2.05.275 2.448.649l.328.307.197-.47c.109-.258.17-.514.135-.57-.182-.295-3.745-1.173-4.143-1.02-.105.04-.191.232-.191.426 0 .254.101.392.362.491.318.122.351.192.273.584-.049.246-.15.467-.224.492-.145.05-.19 1.028-.053 1.165.226.226.46-.146.613-.978zm2.345-.088c0-.199-1.15-.627-1.684-.627-.533 0-.224.382.475.586.952.277 1.209.285 1.209.04zm6.084-.842c.167-.27.28-.51.253-.532-.261-.216-1.365-.773-1.532-.773-.117 0-.252.109-.299.242-.046.133-.12.317-.164.409-.046.099.225.366.657.65.404.264.745.484.758.488.013.005.16-.214.327-.484zm-1.118-2.59c.593-1.144.984-1.75 1.131-1.752.124-.002.588.215 1.031.482.444.267.863.467.932.444.07-.023.259-.288.421-.59.162-.3.533-.97.825-1.49.291-.518.508-.964.482-.99-.111-.111-2.666-1.59-2.747-1.59-.05 0-.455.71-.902 1.58-.78 1.514-.829 1.576-1.195 1.502-.31-.062-.404-.017-.505.252-.08.21-.071.393.022.51.11.137.057.258-.213.484-.293.245-1.209 2.082-1.209 2.425 0 .136.738.57.89.523.072-.022.538-.827 1.037-1.79zm2.137 1.088c.197-.337.358-.645.358-.685 0-.113-1.162-.884-1.411-.937-.227-.047-.938.841-.938 1.172 0 .152 1.32 1.061 1.541 1.061.05 0 .252-.275.45-.611zm3.432-1.106c.52-.582.765-.963.71-1.105-.078-.205-.136-.239-.463-.273-.174-.02-1.528 2.011-1.438 2.156.154.25.437.065 1.191-.778zm-10.805-1.125c.123-.603.267-1.232.322-1.399.087-.265.028-.325-.464-.472-.34-.102-.61-.119-.679-.042-.063.07-.183.562-.268 1.094a48.112 48.112 0 0 1-.242 1.406c-.084.417-.065.442.376.495.256.03.525.046.599.034.074-.012.234-.514.356-1.117zm-2.31-.854c.034-.057.085-.57.112-1.14l.05-1.036H109.474l.033.76c.056 1.321.132 1.52.579 1.52.217 0 .423-.047.457-.104zm5.436-2.856c-.047-.12-.18-.218-.296-.218-.152 0-.211.144-.211.514v.514l.295-.295c.174-.173.261-.386.212-.514zm16.75-.548.874-.882-1.086-1.026a138.07 138.07 0 0 0-1.842-1.709c-.417-.375-.84-.76-.943-.855-.103-.095-.243-.173-.313-.173-.15 0-1.373 1.65-1.373 1.852 0 .133 3.584 3.654 3.734 3.668.04.002.467-.39.948-.875zm-21.9.02c.04-.323.197-1.8.35-3.282.152-1.482.387-3.55.521-4.594.286-2.216.052-2.055 2.348-1.613 1.537.296 3.932 1.013 5.323 1.594.435.181.87.329.967.328.222-.002.867-1.644.708-1.8-.373-.369-4.352-1.612-6.59-2.06-2.641-.527-5.887-.894-6.087-.687-.03.032.088 1.613.263 3.512.174 1.9.388 4.512.475 5.804.235 3.513.17 3.331 1.209 3.37.418.017.444-.016.513-.572zm-.962-1.589c.051-.665.178-1.893.283-2.729.2-1.603.55-4.661.7-6.114.063-.607.147-.864.283-.864.126 0 .193.156.193.45 0 .41-.351 3.638-.892 8.185-.117.988-.213 1.905-.213 2.038 0 .134-.1.243-.223.243-.197 0-.213-.149-.131-1.209zm8.057.138c.147-.437.242-.87.21-.963-.031-.092-.263-.207-.515-.254-.366-.069-.497-.188-.659-.6-.185-.47-.3-.55-1.363-.948-1.42-.532-3.729-1.025-3.925-.837-.171.163.283.528.658.528.482 0 3.068.708 3.661 1.002.566.28.586.312.498.785-.05.27-.173.73-.274 1.02l-.184.525.584.266c.905.41 1.01.369 1.31-.524zm-.529-3.553c.158-.453.287-.87.287-.927 0-.057-.248-.178-.552-.269-.385-.115-.553-.243-.553-.42 0-.14.015-.254.035-.254.02 0 .738.247 1.597.549l1.564.549.198-.476c.11-.261.199-.564.199-.672 0-.485-7.559-2.7-7.813-2.29-.093.15-.52 3.45-.454 3.515.028.027.757.21 1.62.405.939.211 1.94.543 2.485.824.503.259.957.43 1.007.38.051-.05.222-.46.38-.914zm9.475.036c.342-.47.623-.902.623-.958 0-.056-.31-.277-.688-.49-.378-.214-1.357-.774-2.176-1.245-2.047-1.177-1.894-1.155-2.316-.322-.726 1.433-.817 1.24 1.078 2.288.926.513 1.87 1.078 2.098 1.256.228.179.492.326.586.327.094 0 .452-.384.795-.856zm-28.59 27.129c-.073-.117.678-1.646 1.272-2.59.507-.806.526-.883.226-.883-.367 0-1.853-1.225-1.765-1.454.043-.112.138-.204.211-.204.12 0 2.463 1.926 2.463 2.024 0 .023-.37.603-.82 1.29-.452.687-.858 1.366-.903 1.51-.083.26-.576.482-.684.307zm17.596-1.573c-.1-.247-.393-.76-.651-1.14l-.47-.69.807-.73c1.226-1.107 1.184-1.101 1.744-.257.658.991 1.232 2.145 1.14 2.293-.058.095-2.177.973-2.348.973-.022 0-.122-.202-.222-.449zm1.53-.587c.095-.114.254-.207.354-.207.364 0 .337-.28-.103-1.065-.663-1.182-.65-1.174-1.322-.692-.323.232-.587.474-.587.537 0 .19.369.128.553-.093.24-.288.346-.26.527.138.096.21.105.346.023.346a.137.137 0 0 1-.135-.138c0-.076-.098-.138-.217-.138-.16 0-.192.08-.12.31.133.438.176.461.487.267.3-.188.54-.112.54.172 0 .117-.12.157-.345.113-.377-.072-.475.196-.18.492.217.217.317.209.525-.042zm-19.791.443c-.408-.437-.935-.614-.935-.314 0 .119-.063.216-.138.216-.243 0-.15-.387.29-1.206.742-1.377.746-1.378 1.695-.548l.672.588-.398.755c-.457.863-.742.986-1.186.51zm1.047-.768c.225-.386.238-.482.076-.585a.789.789 0 0 0-.331-.122c-.076 0-.045.06.069.134.162.105.126.134-.165.136a.742.742 0 0 0-.587.31c-.275.392-.27.486.027.565.446.12.64.027.911-.438zm-3.364.12c-.114-.072-.72-.331-1.347-.576-.644-.25-1.14-.525-1.14-.63 0-.437 1.613-3.175 1.84-3.124.061.015.662.464 1.335 1.002l1.225.978-.715 1.238c-.393.68-.777 1.238-.853 1.24-.076.002-.231-.055-.345-.128zm-.462-1.395c.479-.966.538-1.269.233-1.202-.14.03-.24.129-.22.22.02.09-.06.164-.173.164-.13 0-.207.131-.207.35 0 .43-.344.586-.662.298-.24-.218-.72-.096-.72.183 0 .146 1.108.68 1.31.631.074-.02.272-.307.438-.644zm-.47-.88c.437-.549.477-.837.142-1.024-.195-.109-.303-.02-.607.511-.264.458-.33.694-.23.817.206.252.275.222.694-.304zm24.007 1.088c-.342-.65-.73-1.28-.863-1.402-.133-.12-.242-.303-.242-.406 0-.209 1.512-1.698 1.727-1.701.152-.002 1.389 1.817 1.828 2.69.572 1.136.587 1.099-.66 1.575-.617.236-1.133.428-1.145.427-.013 0-.303-.533-.645-1.183zm1.182-1.866c.04-.067-.068-.325-.242-.573-.174-.25-.33-.475-.346-.504-.05-.09-1.146.83-1.146.961 0 .21.28.144.655-.151.494-.39.606-.188.126.225-.311.268-.36.379-.233.531.135.163.234.15.635-.087.262-.155.51-.335.55-.402zm1.923 1.155c-.137-.36-.64-1.23-1.118-1.935-.947-1.396-.971-1.766-.033-.495.515.697 1.777 2.838 1.777 3.015 0 .037-.085.067-.189.067-.103 0-.3-.293-.437-.652zm-7.568.13c-.207-.229-.2-.277.1-.653.271-.34.358-.377.535-.23.271.225.468-.042.236-.321-.127-.154-.065-.33.3-.844.253-.357.708-1.003 1.012-1.436a29.9 29.9 0 0 1 .982-1.317l.43-.53.71.6c.391.329.711.699.711.822 0 .221-1.275 1.44-2.798 2.673-.52.422-.878.617-1.036.566-.192-.061-.202-.049-.047.061.16.113.121.204-.207.492-.481.423-.634.442-.928.116zm3.741-3.646c.417.198.47.195.69-.03.228-.232.212-.269-.313-.728l-.553-.483-.207.298c-.114.164-.503.636-.864 1.048-.923 1.056-.858 1.46.075.456l.72-.775zm4.75 3.252c-.27-.556-1.35-2.247-2.039-3.194-.267-.368-.219-.447.806-1.305l.682-.57.353.402c.755.858 2.665 4.06 2.665 4.466 0 .099-1.79.841-2.029.841-.07 0-.267-.288-.438-.64zm1.465-.047c.323-.147.587-.297.587-.333 0-.037-.2-.444-.443-.905-.456-.864-.642-.989-.94-.63-.094.114-.35.253-.569.31l-.397.103.409.864c.225.475.489.862.587.86.098-.001.443-.122.766-.269zm-1.196-2.037c.597-.353.575-.443-.479-1.953l-.397-.569-.368.262a2.188 2.188 0 0 0-.56.621c-.177.331-.163.39.178.745.203.212.37.488.37.613 0 .238.35.506.669.514.102.002.366-.103.587-.233zm-34.557 1.553c0-.112.138-.487.306-.834.235-.484.272-.687.158-.868-.239-.378-.51-.276-.813.307-.155.298-.364.57-.466.604-.236.079-4.16-1.908-4.157-2.104.002-.082.175-.46.385-.84.32-.58.437-.684.738-.653.196.02.43-.052.519-.159.129-.156.09-.251-.189-.471-.193-.152-.35-.324-.35-.382 0-.164 1.161-1.848 1.278-1.853.177-.007.115.3-.189.926-.398.823-.249.877.33.12l.478-.627 1.193.902c.656.497 1.193.937 1.193.978 0 .042-.44.786-.98 1.655-.975 1.57-1.088 1.983-.545 1.983.187 0 .36-.171.526-.518.251-.53.585-.642 1.163-.39.18.08.324-.061.649-.635.696-1.232.647-1.183.911-.93.215.208.193.285-.322 1.127a22.873 22.873 0 0 0-1.01 1.884c-.42.902-.806 1.275-.806.778zm-1.797-1.985c0-.064.398-.743.885-1.51.829-1.309.87-1.41.645-1.612-.372-.338-.523-.266-.928.44a30.72 30.72 0 0 1-.904 1.443c-.613.915-.636 1.043-.216 1.212.404.162.518.168.518.027zm26.016 1.584c-.91-.604-.977-.713-.682-1.117.178-.244.214-.239.864.119.372.205.82.49.996.635.305.252.309.278.088.615-.127.194-.27.344-.319.335-.048-.01-.474-.273-.947-.587zm-15.658-.463c-1.77-1.508-1.821-1.563-1.644-1.776.09-.108.233-.194.32-.19.206.007 2.573 2.254 2.573 2.442 0 .383-.434.218-1.25-.476zm3.805.086a44.683 44.683 0 0 0-.77-.995c-.702-.875-1.371-1.796-1.371-1.89 0-.053.559-.427 1.242-.831.817-.484 1.202-.787 1.124-.886-.064-.083-.158-.322-.208-.531-.105-.437-.442-.506-.566-.116-.046.146-.485.535-.976.864-.59.396-.894.693-.897.875-.005.226-.094.175-.484-.276a23.1 23.1 0 0 1-1.167-1.547l-.689-.995 1.037-.663c.738-.473 1.02-.73.98-.896-.042-.172.199-.356.936-.715 1.76-.859 1.561-.992 2.396 1.605.4 1.241.726 2.295.726 2.343 0 .047-.186.127-.413.177-.227.05-.45.149-.493.22-.044.071-.306.224-.582.34-.633.264-1.366.819-1.56 1.181-.114.215-.107.273.033.255.372-.05.528.015.528.217 0 .28.571 1.147.821 1.245.11.042.359-.038.553-.18.68-.499 1.916-.989 2.052-.814.128.164.443 1.018.443 1.2 0 .084-2.135 1.392-2.243 1.373-.02-.005-.224-.255-.452-.56zm-2.513-4.398c-.039-.147-.161-.302-.273-.345-.11-.042-.162-.142-.113-.221.052-.085.202 0 .364.206.152.193.364.35.473.35.248 0 .246-.056-.02-.572-.12-.232-.177-.462-.127-.511.107-.107.482.37.482.613 0 .1.113.138.28.095.332-.087.287-.316-.261-1.342-.614-1.149-.69-1.211-1.149-.94-.214.126-.39.277-.39.334 0 .058-.186.202-.414.32-.439.227-.547.58-.217.706.11.042.428-.08.708-.27.476-.323.89-.359.89-.076 0 .292-.029.328-.231.286-.251-.051-.874.493-.874.764 0 .103.091.222.202.265.111.043.24.196.286.341.112.353.476.35.384-.002zm3.406-.597c-.005-.171-.153-.653-.334-1.071-.29-.67-.37-.755-.685-.715-.294.036-.358-.013-.36-.277a1.19 1.19 0 0 0-.132-.528c-.115-.182-.16-.178-.368.03-.196.195-.21.297-.077.587.183.403.075.464-.195.109-.164-.216-.184-.19-.186.241-.005.754.143.893.734.698.496-.164.78-.111.78.144 0 .074.09.35.2.614.226.543.631.652.623.168zm5.598-4.318c0-5.092.017-7.155.038-4.584.02 2.57.02 6.736 0 9.257-.02 2.522-.039.419-.039-4.673zm6.498 8.704c-.304-.262-.724-.547-.933-.634-.463-.193-.465-.238-.042-1.135.185-.395.401-.888.48-1.097.078-.21.24-.38.36-.38.297 0 .998.37 1.606.848.277.217.572.395.656.395.084 0 .153.068.153.151 0 .232-1.433 2.331-1.59 2.328-.075 0-.386-.215-.69-.477zm1.658-1.085c.265-.404.154-.728-.286-.839-.214-.053-.336-.183-.336-.358 0-.301-.017-.31-.334-.19-.313.12-.27.373.127.745.486.457.318.514-.246.084-.487-.372-.79-.459-.79-.226 0 .128 1.34 1.079 1.551 1.1.056.007.197-.137.314-.316zm-14.854.197c0-.063.128-.148.285-.19.283-.074.283-.076-.035-.569-.281-.437-.368-.485-.734-.408l-.414.087.268-.299c.367-.41 2.267-1.335 2.412-1.175.149.165.462 1.453.374 1.54-.037.037-.161-.158-.276-.433-.228-.545-.566-.76-.81-.516-.116.115-.078.262.147.566.35.474.385.697.107.697-.108 0-.237-.182-.286-.405-.116-.528-.447-.823-.568-.507a.48.48 0 0 0 .084.43c.094.113.12.206.057.206s-.04.074.052.165c.292.293.185.63-.249.781-.228.08-.414.093-.414.03zm19.021-1.368c-.43-.449-.444-.538-.138-.876.214-.237.21-.252-.062-.252-.16 0-.344.095-.41.21-.099.178-.166.158-.438-.131l-.322-.342.274-.456c.64-1.069.947-1.48 1.106-1.486.19-.007 2.11 1.758 2.11 1.938 0 .138-.426.595-1.187 1.275l-.565.504zm1.547-1.087c.245-.438-1.38-2.014-1.805-1.75-.258.159-.062.556.615 1.247.773.788.981.876 1.19.503zm-5.63.443c-.486-.333-1.062-.679-1.279-.769-.472-.196-.485-.349-.096-1.15.34-.702.478-.703 1.222-.01.603.562 1.502 1.168 1.732 1.168.138 0 .887-1.083 1.495-2.164.104-.184-1.578-1.347-1.713-1.184-.046.056-.229.478-.406.94l-.323.838-.736-.399-.736-.398.219-.51c.12-.279.283-.695.362-.923.079-.228.19-.466.247-.53.099-.11 1.652.52 1.793.729.038.056.438.315.888.576.45.261.841.543.87.627.057.173-.899 1.612-1.83 2.754-.34.418-.618.82-.618.893 0 .22-.166.145-1.091-.488zm-12.93-1.748a254.744 254.744 0 0 1-1.36-4.042c-.036-.171 1.71-.684 1.842-.542.059.062.265.984.458 2.049.193 1.064.39 2.036.437 2.159.066.173-.028.245-.416.318-.276.052-.59.128-.698.17-.108.04-.226-.007-.262-.112zm-1.717-5.074c-.271-.529-.995-2.925-.92-3.046.085-.139 1.423-.565 1.773-.565.143 0 .31.424.561 1.426.197.785.392 1.515.433 1.624.056.144-.17.278-.827.492-.825.27-.914.275-1.02.07zm1.391-.787c-.05-.298-.587-2.152-.664-2.291-.1-.183-1.156.19-1.156.408 0 .12.166.727.369 1.35l.369 1.132.563-.166c.44-.13.554-.225.52-.433zm11.194-5.137c.07-.36.527-.4.527-.046 0 .198-.089.286-.286.286-.198 0-.272-.074-.24-.24zm1.529-2.199c-.324-.133-.174-.43.248-.493.363-.053.416-.022.38.225-.04.288-.306.401-.628.268zm-53.233 54.018c1.28-.892 6.08-4.435 6.218-4.59.084-.095 1.611-1.252 2.024-1.533.163-.112.7-.508 1.193-.882l.897-.68-.734-1.462c-2.069-4.12-3.633-9.557-4.008-13.927l-.097-1.134-.708-.147c-.669-.139-4.621-.754-11.96-1.861-1.78-.269-3.269-.456-3.308-.416-.125.124.257 5.22.531 7.087 1.042 7.101 3.872 14.991 7.356 20.509l.415.657.434-.354a43.497 43.497 0 0 1 1.747-1.267zm93.372-.419c1.43-2.576 2.133-4.034 3.126-6.484a55.776 55.776 0 0 0 4.001-18.457c.054-1.296.045-1.347-.236-1.346-.383 0-11.794 1.778-14.282 2.225-.583.104-.864.219-.864.352 0 .108-.066.8-.147 1.538-.477 4.34-1.895 9.054-3.944 13.111-.486.962-.883 1.796-.883 1.852 0 .188 3.826 3.127 8.082 6.208.892.646 2.097 1.527 2.677 1.958.58.431 1.153.789 1.273.794.142.007.565-.612 1.197-1.75zm-99.59-27.674c3.511-.534 8.676-1.352 10.703-1.697l.961-.163.297-2.004c.382-2.577.531-3.29 1.125-5.389a41.415 41.415 0 0 1 2.529-6.692c.71-1.481.824-1.813.663-1.935-3.654-2.76-6.13-4.593-8.47-6.27a268.481 268.481 0 0 1-3.27-2.365c-.202-.157-.431-.286-.51-.286-.351 0-3.103 5.248-4.352 8.3-1.444 3.528-2.647 7.726-3.266 11.39-.316 1.87-.692 5.639-.693 6.946 0 .828.014.863.31.794.172-.04 1.96-.323 3.973-.63zm106.695-.902c-.203-8.398-3.085-17.833-7.84-25.673-.135-.223-.309-.135-1.78.904-.897.632-1.98 1.393-2.407 1.69-.427.296-1.15.822-1.606 1.168l-2.763 2.09c-1.064.803-2.233 1.69-2.597 1.97-.364.282-.765.57-.892.64-.202.113-.118.36.704 2.076 2.01 4.194 3.22 8.327 3.684 12.587.087.797.172 1.464.189 1.48.043.044 4.34.77 7.963 1.346 1.71.272 4.01.643 5.112.825 1.102.183 2.063.318 2.135.3.075-.017.117-.62.098-1.403zm-87.988-20.32c2.144-3.128 5.539-6.754 8.307-8.874.456-.349.906-.709 1-.8.093-.09.248-.192.345-.226.227-.08.221-.09-3.089-5.831-3.99-6.921-4.187-7.253-4.316-7.256-.11-.002-2.473 1.621-3.063 2.106-.15.123-.646.52-1.102.88-3.677 2.913-7.515 6.915-10.52 10.968-1.006 1.358-2.123 2.98-2.123 3.084 0 .124 4.355 2.468 11.192 6.023 1.178.612 2.235 1.113 2.349 1.112.114 0 .573-.535 1.02-1.187zm68.97-.028c4.614-2.411 6.042-3.17 8.287-4.409 1.292-.712 2.398-1.344 2.458-1.403.17-.169-1.973-3.237-3.821-5.473-3.124-3.78-6.48-7.017-10.156-9.795-1.874-1.416-2.497-1.809-2.637-1.662-.066.07-.923 1.525-1.905 3.235a2041.5 2041.5 0 0 1-2.025 3.524c-.133.228-.925 1.627-1.761 3.109-1.329 2.354-1.492 2.711-1.291 2.832.796.48 4.69 3.857 5.455 4.73l1.422 1.623a46.806 46.806 0 0 1 2.418 3.077c.662.931 1.267 1.693 1.344 1.693.078 0 1.073-.486 2.211-1.081zm-55.981-12.1c4.608-2.797 10.525-4.72 16.518-5.367.376-.04.226.658 2.004-9.363 1.068-6.023 1.019-5.528.543-5.526-.73.003-5.358.406-6.406.556-7.494 1.08-14.953 3.706-21.245 7.48-1.007.605-1.83 1.133-1.83 1.175 0 .064.47.693 1.067 1.427.093.114.963 1.235 1.934 2.49 1.984 2.566 2.164 2.795 3.673 4.67.594.736 1.371 1.724 1.728 2.196.356.472.73.86.83.864.1.002.633-.268 1.184-.602zm42.047-.74a659.328 659.328 0 0 0 3.59-4.535c.183-.233.657-.86 1.053-1.393.396-.532 1.278-1.702 1.96-2.598l1.238-1.63-.369-.293c-.702-.56-3.346-2.082-5.555-3.197-6.715-3.392-14.373-5.393-22.15-5.788-1.272-.064-1.417-.048-1.417.164 0 .13.156 1.107.347 2.17.19 1.065.753 4.262 1.25 7.106.497 2.844.93 5.213.961 5.265.032.05.604.133 1.272.182 3.529.259 7.68 1.362 11.646 3.095 1.086.475 3.991 2.027 4.624 2.47.15.105.343.191.427.191.085 0 .59-.544 1.123-1.209zm-84.345 37.93c-.074-.095-.435-1.137-.802-2.315-.437-1.402-.766-2.224-.953-2.38-.276-.231-.255-.24.647-.242.962-.002 1.091.058.711.335-.2.147-.176.313.242 1.708.255.85.507 1.545.561 1.546.154 0 .535-1.368.62-2.223.068-.685.04-.808-.243-1.071l-.32-.298h1.534l.083.656c.101.8.755 2.936.898 2.936.123 0 .854-2.564.854-2.995 0-.164-.078-.325-.173-.36-.364-.13.034-.251.676-.207.642.044.655.053.304.207-.249.11-.399.309-.465.618-.25 1.164-1.339 4.258-1.498 4.258-.173 0-.556-.983-.983-2.527-.121-.44-.28-.762-.354-.717a.314.314 0 0 0-.13.247c.005.294-.875 2.997-.976 2.997-.054 0-.159-.078-.233-.173zm121.78-.737c-.046-.12-.083-1.117-.083-2.214v-1.995l.346-.158c.448-.204.854.002 1.278.653.2.306.422.478.618.478.491 0 3.885 1.115 3.752 1.232-.12.107-2.374.766-3.438 1.006-.37.083-.72.306-1.055.67-.544.592-1.253.756-1.418.328zm-123.614-1.097a244.97 244.97 0 0 0-1.692-.493c-.59-.17-1.071-.358-1.071-.42 0-.06.264-.179.587-.264.323-.084.96-.266 1.416-.404.456-.139.875-.224.931-.19.056.033.205.415.33.848.125.433.257.865.293.96.078.207.013.203-.794-.037z" style="fill:currentColor;fill-opacity:1;stroke:url(#b);stroke-width:.391682;stroke-opacity:1" transform="translate(-39.832 -82.574)"/></g></svg>